<svg width="263" height="144" viewBox="0 0 263 144" fill="none" xmlns="http://www.w3.org/2000/svg">
<g opacity="0.4" clip-path="url(#clip0)">
<path d="M175.4 143H171.6C170.8 143 170.1 142.3 170.1 141.5C170.1 140.7 170.8 140 171.6 140H175.4C177 140 178.5 139.7 179.9 139.1C181.3 138.5 182.6 137.6 183.7 136.5C184.8 135.4 185.7 134.1 186.3 132.7C186.9 131.3 187.2 129.7 187.2 128.2V126.8C187.2 125 186.8 123.3 186 121.7C185.6 121 186 120.1 186.7 119.7C187.4 119.3 188.3 119.7 188.7 120.4C189.7 122.4 190.2 124.6 190.2 126.8V128.2C190.2 130.2 189.8 132.1 189.1 133.9C188.4 135.7 187.3 137.3 185.9 138.7C184.5 140.1 182.9 141.2 181.1 141.9C179.3 142.6 177.4 143 175.4 143ZM163.7 143H161.7C160.9 143 160.2 142.3 160.2 141.5C160.2 140.7 160.9 140 161.7 140H163.7C164.5 140 165.2 140.7 165.2 141.5C165.2 142.3 164.5 143 163.7 143ZM153.6 143H149.6C148.8 143 148.1 142.3 148.1 141.5C148.1 140.7 148.8 140 149.6 140H153.6C154.4 140 155.1 140.7 155.1 141.5C155.1 142.3 154.4 143 153.6 143ZM141.6 143H109.6C108.8 143 108.1 142.3 108.1 141.5C108.1 140.7 108.8 140 109.6 140H141.6C142.4 140 143.1 140.7 143.1 141.5C143.1 142.3 142.4 143 141.6 143ZM101.6 143H99.6C98.8 143 98.1 142.3 98.1 141.5C98.1 140.7 98.8 140 99.6 140H101.6C102.4 140 103.1 140.7 103.1 141.5C103.1 142.3 102.4 143 101.6 143ZM91.4 143H87.4C86.6 143 85.9 142.3 85.9 141.5C85.9 140.7 86.6 140 87.4 140H91.4C92.2 140 92.9 140.7 92.9 141.5C92.9 142.3 92.3 143 91.4 143ZM79.4 143H58C54 143 50.3 141.5 47.5 138.7L47.4 138.6C46.8 138 46.8 137.1 47.4 136.5C48 135.9 48.9 135.9 49.5 136.5L49.6 136.6C51.8 138.8 54.8 140.1 57.9 140.1H79.3C80.1 140.1 80.8 140.8 80.8 141.6C80.8 142.4 80.3 143 79.4 143ZM44.9 132C44.2 132 43.5 131.5 43.4 130.8C43.3 130.1 43.2 129.3 43.2 128.6C43.2 127.8 43.8 127.1 44.7 127.1C45.6 127.1 46.2 127.7 46.2 128.6C46.2 129.2 46.3 129.8 46.4 130.4C46.5 131.2 46 132 45.2 132.1C45.1 132 45 132 44.9 132ZM46.3 122.1C46.1 122.1 45.8 122 45.6 121.9C44.9 121.5 44.6 120.6 45 119.9C45.6 118.8 46.3 117.8 47.1 116.9C47.3 116.7 47.5 116.5 47.7 116.3C48.3 115.7 49.2 115.7 49.8 116.3C50.4 116.9 50.4 117.8 49.8 118.4C49.6 118.6 49.5 118.7 49.3 118.9C48.7 119.6 48.1 120.4 47.7 121.3C47.3 121.8 46.8 122.1 46.3 122.1ZM182.1 116.8C181.8 116.8 181.6 116.7 181.4 116.6C180.4 116 179.3 115.6 178.1 115.3C177.3 115.1 176.8 114.3 177 113.5C177.2 112.7 178 112.2 178.8 112.4C180.3 112.7 181.6 113.3 182.9 114C183.6 114.4 183.9 115.3 183.5 116C183.1 116.5 182.6 116.8 182.1 116.8ZM55.6 115.2C54.9 115.2 54.3 114.7 54.1 114C54 113.2 54.5 112.4 55.3 112.3C55.7 112.2 56 112.2 56.4 112.1C56.9 112 57.5 112 58 112H87.6C88.4 112 89.1 112.7 89.1 113.5C89.1 114.3 88.4 115 87.6 115H58C57.6 115 57.1 115 56.7 115.1C56.4 115.1 56.1 115.2 55.8 115.2C55.8 115.2 55.7 115.2 55.6 115.2ZM170.3 115H168.3C167.5 115 166.8 114.3 166.8 113.5C166.8 112.7 167.5 112 168.3 112H170.3C171.1 112 171.8 112.7 171.8 113.5C171.8 114.3 171.1 115 170.3 115ZM160.3 115H159C157 115 155.1 114.6 153.3 113.9C151.5 113.2 149.9 112.1 148.5 110.7C147.1 109.3 146 107.7 145.3 105.9C144.6 104.1 144.2 102.2 144.2 100.3V98.8C144.2 95.7 145.2 92.7 147 90.1C147.5 89.4 148.4 89.3 149.1 89.8C149.8 90.3 149.9 91.2 149.4 91.9C147.9 93.9 147.2 96.3 147.2 98.8V100.2C147.2 101.8 147.5 103.3 148.1 104.7C148.7 106.1 149.6 107.4 150.7 108.5C151.8 109.6 153.1 110.5 154.5 111.1C155.9 111.7 157.5 112 159 112H160.3C161.1 112 161.8 112.7 161.8 113.5C161.8 114.3 161.1 115 160.3 115ZM95.3 113C94.8 113 94.3 112.7 94 112.3C93.6 111.6 93.8 110.7 94.5 110.2C95 109.9 95.5 109.5 95.9 109.2C96.5 108.7 97.5 108.7 98 109.4C98.5 110 98.5 111 97.8 111.5C97.2 112 96.6 112.4 96 112.8C95.8 113 95.5 113 95.3 113ZM101.1 105.1C101 105.1 100.8 105.1 100.7 105.1C99.9 104.9 99.4 104.1 99.6 103.3C99.9 102.3 100 101.3 100 100.3V99.7C100 98.9 100.7 98.2 101.5 98.2C102.3 98.2 103 98.9 103 99.7V100.3C103 101.6 102.8 102.8 102.5 104C102.4 104.6 101.8 105.1 101.1 105.1ZM99.7 93.5C99.2 93.5 98.7 93.2 98.4 92.8C98 92.1 97.5 91.4 96.9 90.8C94.9 88.6 92.1 87.3 89.2 87.1H70C69.2 87.1 68.5 86.4 68.5 85.6C68.5 84.8 69.2 84 70 84H89.2H89.3C93 84.3 96.5 86 99 88.7C99.7 89.5 100.3 90.3 100.9 91.2C101.3 91.9 101.1 92.8 100.4 93.3C100.2 93.4 100 93.5 99.7 93.5ZM154.4 87.7C153.8 87.7 153.2 87.3 153 86.7C152.7 85.9 153.1 85.1 153.9 84.8C155.2 84.3 156.5 84.1 157.8 84H157.9H158.3C159.1 84 159.8 84.7 159.8 85.5C159.8 86.3 159.1 87 158.3 87H158C156.9 87.1 155.9 87.3 154.9 87.7C154.8 87.7 154.6 87.7 154.4 87.7ZM249.2 87H238.6C237.8 87 237.1 86.3 237.1 85.5C237.1 84.7 237.8 84 238.6 84H249.2C252.2 83.8 254.9 82.5 256.9 80.3C258.9 78.1 260.1 75.3 260.1 72.3V70.8C260.1 69.7 260 68.6 259.7 67.6C259.5 66.8 259.9 66 260.7 65.7C261.5 65.5 262.3 65.9 262.6 66.7C263 68 263.2 69.4 263.2 70.7V72.2C263.2 76 261.8 79.5 259.2 82.3C256.6 85 253.2 86.7 249.4 87C249.3 87 249.2 87 249.2 87ZM230.6 87H228.6C227.8 87 227.1 86.3 227.1 85.5C227.1 84.7 227.8 84 228.6 84H230.6C231.4 84 232.1 84.7 232.1 85.5C232.1 86.3 231.4 87 230.6 87ZM220.5 87H216.5C215.7 87 215 86.3 215 85.5C215 84.7 215.7 84 216.5 84H220.5C221.3 84 222 84.7 222 85.5C222 86.3 221.3 87 220.5 87ZM208.5 87H176.5C175.7 87 175 86.3 175 85.5C175 84.7 175.7 84 176.5 84H208.5C209.3 84 210 84.7 210 85.5C210 86.3 209.3 87 208.5 87ZM168.5 87H166.5C165.7 87 165 86.3 165 85.5C165 84.7 165.7 84 166.5 84H168.5C169.3 84 170 84.7 170 85.5C170 86.3 169.3 87 168.5 87ZM62 87H60C59.2 87 58.5 86.3 58.5 85.5C58.5 84.7 59.2 84 60 84H62C62.8 84 63.5 84.7 63.5 85.5C63.5 86.3 62.9 87 62 87ZM51.9 87H47.9C47.1 87 46.4 86.3 46.4 85.5C46.4 84.7 47.1 84 47.9 84H51.9C52.7 84 53.4 84.7 53.4 85.5C53.4 86.3 52.7 87 51.9 87ZM39.9 87H27.9H27.8C24.1 86.7 20.6 85.1 18 82.3C15.4 79.6 14 76 14 72.2C14 71.4 14.7 70.7 15.5 70.7C16.3 70.7 17 71.3 17 72.2C17 75.2 18.1 78.1 20.2 80.3C22.2 82.5 25 83.8 27.9 84H39.9C40.7 84 41.4 84.7 41.4 85.5C41.4 86.3 40.7 87 39.9 87ZM17.1 66C16.9 66 16.6 65.9 16.4 65.8C15.7 65.4 15.4 64.5 15.8 63.8C16.2 63.1 16.6 62.5 17 61.9C17.5 61.2 18.4 61.1 19.1 61.6C19.8 62.1 19.9 63 19.4 63.7C19 64.2 18.7 64.7 18.4 65.2C18.2 65.7 17.7 66 17.1 66ZM256.7 62C256.4 62 256 61.9 255.8 61.7C255.3 61.3 254.9 61 254.3 60.7C253.6 60.3 253.4 59.4 253.8 58.6C254.2 57.9 255.1 57.7 255.9 58.1C256.5 58.5 257.1 58.9 257.7 59.4C258.3 59.9 258.4 60.9 257.9 61.5C257.5 61.8 257.1 62 256.7 62ZM24.8 59.6C24.2 59.6 23.6 59.2 23.4 58.6C23.1 57.8 23.6 57 24.4 56.7C25.8 56.2 27.3 56 28.8 56C29.6 56 30.3 56.7 30.3 57.5C30.3 58.3 29.6 59 28.8 59C27.6 59 26.4 59.2 25.3 59.6C25.1 59.6 24.9 59.6 24.8 59.6ZM247.4 59H215.4C214.6 59 213.9 58.3 213.9 57.5C213.9 56.7 214.6 56 215.4 56H247.4C248.2 56 248.9 56.7 248.9 57.5C248.9 58.3 248.2 59 247.4 59ZM207.4 59H203.4C202.6 59 201.9 58.3 201.9 57.5C201.9 56.7 202.6 56 203.4 56H207.4C208.2 56 208.9 56.7 208.9 57.5C208.9 58.3 208.2 59 207.4 59ZM195.2 59H193.2C192.4 59 191.7 58.3 191.7 57.5C191.7 56.7 192.4 56 193.2 56H195.2C196 56 196.7 56.7 196.7 57.5C196.7 58.3 196.1 59 195.2 59ZM68.7 59H36.7C35.9 59 35.2 58.3 35.2 57.5C35.2 56.7 35.9 56 36.7 56H68.7C69.5 56 70.2 56.7 70.2 57.5C70.2 58.3 69.5 59 68.7 59ZM185.2 58.9C185.1 58.9 185.1 58.9 185 58.9C181.7 58.4 178.6 56.9 176.3 54.5C173.4 51.6 171.8 47.7 171.8 43.5C171.8 39.3 173.4 35.5 176.3 32.5C176.6 32.2 176.9 32 177.2 31.7C177.8 31.2 178.8 31.2 179.3 31.9C179.8 32.5 179.8 33.5 179.1 34C178.9 34.2 178.6 34.4 178.4 34.6C176 37 174.7 40.1 174.7 43.4C174.7 46.7 176 49.9 178.4 52.2C180.3 54.1 182.8 55.3 185.4 55.7C186.2 55.8 186.8 56.6 186.7 57.4C186.6 58.3 186 58.9 185.2 58.9ZM76.6 58.3C76 58.3 75.4 57.9 75.2 57.3C74.9 56.5 75.4 55.7 76.2 55.4C76.8 55.2 77.3 55 77.9 54.7C78.6 54.3 79.5 54.7 79.9 55.4C80.3 56.1 79.9 57 79.2 57.4C78.5 57.7 77.8 58 77.1 58.2C76.9 58.3 76.8 58.3 76.6 58.3ZM84.4 52.2C84.1 52.2 83.9 52.1 83.6 52C82.9 51.6 82.7 50.7 83.1 49.9C83.7 48.9 84.2 47.8 84.5 46.6C84.7 45.8 85.5 45.3 86.3 45.5C87.1 45.7 87.6 46.5 87.4 47.3C87 48.7 86.5 50.1 85.7 51.4C85.4 51.9 84.9 52.2 84.4 52.2ZM85.7 40.6C85.1 40.6 84.5 40.2 84.3 39.6C83.7 37.7 82.6 36 81.3 34.7C78.9 32.3 75.8 31 72.5 31H57.9C57.1 31 56.4 30.3 56.4 29.5C56.4 28.7 57.1 28 57.9 28H72.4C76.5 28 80.4 29.6 83.4 32.5C85.1 34.2 86.4 36.3 87.2 38.6C87.5 39.4 87 40.2 86.2 40.5C86 40.6 85.8 40.6 85.7 40.6ZM185.3 31.1C184.6 31.1 183.9 30.6 183.8 29.8C183.7 29 184.3 28.2 185.1 28.1C185.8 28 186.5 28 187.2 28H189.3C190.1 28 190.8 28.7 190.8 29.5C190.8 30.3 190.1 31 189.3 31H187.2C186.6 31 186 31 185.5 31.1C185.5 31.1 185.4 31.1 185.3 31.1ZM199.5 31H197.5C196.7 31 196 30.3 196 29.5C196 28.7 196.7 28 197.5 28H199.5C200.3 28 201 28.7 201 29.5C201 30.3 200.3 31 199.5 31ZM49.9 31H47.9C47.1 31 46.4 30.3 46.4 29.5C46.4 28.7 47.1 28 47.9 28H49.9C50.7 28 51.4 28.7 51.4 29.5C51.4 30.3 50.8 31 49.9 31ZM39.8 31H35.8C35 31 34.3 30.3 34.3 29.5C34.3 28.7 35 28 35.8 28H39.8C40.6 28 41.3 28.7 41.3 29.5C41.3 30.3 40.6 31 39.8 31ZM27.8 31H15.3C11.2 31 7.29998 29.4 4.29998 26.5C2.09998 24.3 0.599984 21.4 -1.60392e-05 18.3C-0.100016 17.5 0.399984 16.7 1.19998 16.6C1.99998 16.4 2.79998 16.9 2.99998 17.7C3.49998 20.2 4.69998 22.5 6.49998 24.3C8.89998 26.7 12 28 15.3 28H27.8C28.6 28 29.3 28.7 29.3 29.5C29.3 30.3 28.6 31 27.8 31ZM207.3 29.7C206.7 29.7 206.2 29.4 205.9 28.8C205.6 28 205.9 27.2 206.6 26.8C207.9 26.2 209.1 25.3 210.2 24.3C212.6 21.9 213.9 18.8 213.9 15.5C213.9 12.2 212.6 9 210.2 6.7C209.1 5.6 207.9 4.8 206.5 4.1C205.7 3.8 205.4 2.9 205.7 2.1C206 1.3 206.9 1 207.7 1.3C209.4 2.1 211 3.1 212.3 4.5C215.2 7.4 216.8 11.3 216.8 15.5C216.8 19.7 215.2 23.5 212.3 26.5C211 27.8 209.5 28.8 207.9 29.6C207.7 29.7 207.5 29.7 207.3 29.7ZM2.29998 11.7C2.09998 11.7 1.89998 11.7 1.69998 11.6C0.899984 11.3 0.599984 10.4 0.899984 9.6C1.19998 8.9 1.49998 8.3 1.89998 7.6C2.39998 6.9 3.29998 6.7 3.99998 7.1C4.69998 7.5 4.89998 8.4 4.49998 9.2C4.19998 9.7 3.89998 10.2 3.69998 10.8C3.49998 11.3 2.89998 11.7 2.29998 11.7ZM9.09998 4.4C8.59998 4.4 7.99998 4.1 7.79998 3.6C7.39998 2.9 7.69998 2 8.49998 1.6C9.79998 0.9 11.2 0.5 12.7 0.2C13.5 0.1 14.3 0.6 14.4 1.4C14.5 2.3 14 3 13.2 3.2C12 3.4 10.8 3.8 9.79998 4.3C9.59998 4.4 9.29998 4.4 9.09998 4.4ZM199.3 3H195.3C194.5 3 193.8 2.3 193.8 1.5C193.8 0.7 194.5 0 195.3 0H199.3C200.1 0 200.8 0.7 200.8 1.5C200.8 2.3 200.1 3 199.3 3ZM187.2 3H185.2C184.4 3 183.7 2.3 183.7 1.5C183.7 0.7 184.4 0 185.2 0H187.2C188 0 188.7 0.7 188.7 1.5C188.7 2.3 188 3 187.2 3ZM177.2 3H145.2C144.4 3 143.7 2.3 143.7 1.5C143.7 0.7 144.4 0 145.2 0H177.2C178 0 178.7 0.7 178.7 1.5C178.7 2.3 178 3 177.2 3ZM137.2 3H133.2C132.4 3 131.7 2.3 131.7 1.5C131.7 0.7 132.4 0 133.2 0H137.2C138 0 138.7 0.7 138.7 1.5C138.7 2.3 138 3 137.2 3ZM125 3H123C122.2 3 121.5 2.3 121.5 1.5C121.5 0.7 122.2 0 123 0H125C125.8 0 126.5 0.7 126.5 1.5C126.5 2.3 125.8 3 125 3ZM115 3H83C82.2 3 81.5 2.3 81.5 1.5C81.5 0.7 82.2 0 83 0H115C115.8 0 116.5 0.7 116.5 1.5C116.5 2.3 115.8 3 115 3ZM75 3H71C70.2 3 69.5 2.3 69.5 1.5C69.5 0.7 70.2 0 71 0H75C75.8 0 76.5 0.7 76.5 1.5C76.5 2.3 75.8 3 75 3ZM62.9 3H60.9C60.1 3 59.4 2.3 59.4 1.5C59.4 0.7 60.1 0 60.9 0H62.9C63.7 0 64.4 0.7 64.4 1.5C64.4 2.3 63.7 3 62.9 3ZM52.9 3H20.9C20.1 3 19.4 2.3 19.4 1.5C19.4 0.7 20.1 0 20.9 0H52.9C53.7 0 54.4 0.7 54.4 1.5C54.4 2.3 53.7 3 52.9 3Z" fill="black"/>
<path d="M243.4 143.1H241.4C240.6 143.1 239.9 142.4 239.9 141.6C239.9 140.8 240.6 140.1 241.4 140.1H243.4C244.2 140.1 244.9 140.8 244.9 141.6C244.9 142.4 244.2 143.1 243.4 143.1ZM233.4 143.1H215.3C210.1 143.1 205.2 140.5 202.3 136.1C201.8 135.4 202 134.5 202.7 134C203.4 133.5 204.3 133.7 204.8 134.4C207.1 137.9 211 140.1 215.3 140.1H233.4C234.2 140.1 234.9 140.8 234.9 141.6C234.9 142.4 234.2 143.1 233.4 143.1ZM251.5 142.4C250.9 142.4 250.3 142 250.1 141.4C249.9 140.6 250.3 139.8 251.1 139.5C252.2 139.1 253.3 138.6 254.3 138C255 137.5 255.9 137.7 256.4 138.4C256.9 139.1 256.7 140 256 140.5C254.8 141.3 253.4 142 252 142.4C251.8 142.4 251.6 142.4 251.5 142.4ZM260.1 134.6C259.9 134.6 259.7 134.6 259.5 134.5C258.7 134.2 258.4 133.3 258.7 132.5C259.4 130.9 259.7 129.2 259.7 127.5C259.7 120.6 254.1 115 247.2 115H215.3C214.5 115 213.8 114.3 213.8 113.5C213.8 112.7 214.4 112 215.3 112H247.3C255.9 112 262.8 119 262.8 127.5C262.8 129.7 262.4 131.7 261.5 133.7C261.2 134.3 260.7 134.6 260.1 134.6ZM201.3 129.2C200.5 129.2 199.8 128.5 199.8 127.7V127.5C199.8 126.1 200 124.7 200.4 123.3C200.6 122.5 201.5 122 202.2 122.3C203 122.5 203.5 123.4 203.2 124.1C202.9 125.2 202.7 126.3 202.7 127.5V127.6C202.8 128.5 202.1 129.2 201.3 129.2ZM206.1 118.5C205.7 118.5 205.3 118.3 205 118C204.5 117.4 204.5 116.4 205.1 115.9C205.7 115.4 206.2 115 206.9 114.6C207.6 114.1 208.5 114.3 209 115C209.5 115.7 209.3 116.6 208.6 117.1C208.1 117.4 207.6 117.8 207.2 118.2C206.8 118.3 206.4 118.5 206.1 118.5Z" fill="black"/>
<path d="M16.2998 143C15.4998 143 14.7998 142.3 14.7998 141.5C14.7998 140.7 15.3998 140 16.2998 140H16.3998C23.2998 140 28.8998 134.4 28.8998 127.5C28.8998 127.3 28.8998 127.1 28.8998 126.9C28.8998 126.1 29.4998 125.4 30.2998 125.3C31.0998 125.3 31.7998 125.9 31.8998 126.7C31.8998 126.9 31.8998 127.2 31.8998 127.4C31.7998 136 24.7998 143 16.2998 143ZM10.6998 141.9C10.4998 141.9 10.2998 141.9 10.0998 141.8C9.0998 141.4 8.1998 140.9 7.3998 140.3C6.6998 139.8 6.5998 138.9 6.9998 138.2C7.3998 137.5 8.39981 137.4 9.0998 137.8C9.7998 138.3 10.4998 138.7 11.2998 139C12.0998 139.3 12.3998 140.2 12.0998 141C11.8998 141.5 11.2998 141.9 10.6998 141.9ZM4.2998 136.3C3.7998 136.3 3.2998 136 2.9998 135.6C2.6998 135.2 2.4998 134.7 2.1998 134.2C1.7998 133.5 2.1998 132.6 2.8998 132.2C3.5998 131.8 4.4998 132.2 4.8998 132.9C5.0998 133.3 5.2998 133.7 5.4998 134C5.8998 134.7 5.6998 135.6 4.9998 136.1C4.8998 136.2 4.5998 136.3 4.2998 136.3ZM2.2998 129.6C1.4998 129.6 0.799805 129 0.799805 128.2C0.799805 128 0.799805 127.7 0.799805 127.5C0.799805 119 7.7998 112 16.2998 112C17.0998 112 17.7998 112.7 17.7998 113.5C17.7998 114.3 17.0998 115 16.2998 115C9.3998 115 3.7998 120.6 3.7998 127.5C3.7998 127.7 3.7998 127.9 3.7998 128C3.7998 128.9 3.1998 129.6 2.2998 129.6ZM28.8998 122.9C28.2998 122.9 27.7998 122.6 27.4998 122.1C27.2998 121.7 27.0998 121.3 26.8998 121C26.4998 120.3 26.6998 119.4 27.3998 118.9C28.0998 118.5 28.9998 118.7 29.4998 119.4C29.7998 119.8 29.9998 120.3 30.2998 120.8C30.6998 121.5 30.3998 122.4 29.5998 122.8C29.2998 122.9 29.0998 122.9 28.8998 122.9ZM24.2998 117.5C23.9998 117.5 23.6998 117.4 23.3998 117.2C22.6998 116.7 21.9998 116.3 21.1998 116C20.3998 115.7 20.0998 114.8 20.3998 114C20.6998 113.2 21.5998 112.9 22.3998 113.2C23.3998 113.6 24.2998 114.1 25.0998 114.7C25.7998 115.2 25.8998 116.1 25.4998 116.8C25.1998 117.3 24.7998 117.5 24.2998 117.5Z" fill="black"/>
<path d="M245.3 31C244.5 31 243.8 30.3 243.8 29.5C243.8 28.7 244.4 28 245.3 28H245.4C252.3 28 257.9 22.4 257.9 15.5C257.9 15.3 257.9 15.1 257.9 14.9C257.9 14.1 258.5 13.4 259.3 13.3C260.2 13.3 260.8 13.9 260.9 14.7C260.9 14.9 260.9 15.2 260.9 15.4C260.8 24 253.8 31 245.3 31ZM239.7 29.9C239.5 29.9 239.3 29.9 239.1 29.8C238.1 29.4 237.2 28.9 236.4 28.3C235.7 27.8 235.6 26.9 236 26.2C236.5 25.5 237.4 25.4 238.1 25.8C238.8 26.3 239.5 26.7 240.3 27C241.1 27.3 241.4 28.2 241.1 29C240.8 29.5 240.3 29.9 239.7 29.9ZM233.3 24.3C232.8 24.3 232.3 24 232 23.6C231.7 23.2 231.5 22.7 231.2 22.2C230.8 21.5 231.2 20.6 231.9 20.2C232.6 19.8 233.5 20.2 233.9 20.9C234.1 21.3 234.3 21.7 234.5 22C234.9 22.7 234.7 23.6 234 24.1C233.9 24.2 233.6 24.3 233.3 24.3ZM231.3 17.6C230.5 17.6 229.8 17 229.8 16.2C229.8 16 229.8 15.7 229.8 15.5C229.8 7 236.8 0 245.3 0C246.1 0 246.8 0.7 246.8 1.5C246.8 2.3 246.1 3 245.3 3C238.4 3 232.8 8.6 232.8 15.5C232.8 15.7 232.8 15.9 232.8 16C232.8 16.9 232.2 17.6 231.3 17.6ZM257.9 10.9C257.3 10.9 256.8 10.6 256.5 10.1C256.3 9.7 256.1 9.4 255.9 9C255.5 8.3 255.7 7.4 256.4 6.9C257.1 6.5 258 6.7 258.5 7.4C258.8 7.8 259 8.3 259.3 8.8C259.7 9.5 259.3 10.4 258.6 10.8C258.3 10.9 258.1 10.9 257.9 10.9ZM253.3 5.5C253 5.5 252.7 5.4 252.4 5.2C251.7 4.7 251 4.3 250.2 4C249.4 3.7 249.1 2.8 249.4 2C249.7 1.2 250.6 0.9 251.4 1.2C252.4 1.6 253.3 2.1 254.1 2.7C254.8 3.2 254.9 4.1 254.5 4.8C254.2 5.3 253.7 5.5 253.3 5.5Z" fill="black"/>
</g>
<defs>
<clipPath id="clip0">
<rect width="263" height="143.1" fill="white"/>
</clipPath>
</defs>
</svg>
