<svg width="28" height="27" viewBox="0 0 28 27" fill="none" xmlns="http://www.w3.org/2000/svg">
<path d="M12.5333 0.800051C6.40001 1.46672 1.46668 6.40005 0.800012 12.4001C0.133345 18.6667 3.73334 24.2667 9.20001 26.4001C9.60001 26.5334 10 26.2667 10 25.7334V23.6001C10 23.6001 9.46668 23.7334 8.80001 23.7334C6.93335 23.7334 6.13335 22.1334 6.00001 21.2001C5.86668 20.6667 5.60001 20.2667 5.20001 19.8667C4.80001 19.7334 4.66668 19.7334 4.66668 19.6001C4.66668 19.3334 5.06668 19.3334 5.20001 19.3334C6.00001 19.3334 6.66668 20.2667 6.93334 20.6667C7.60001 21.7334 8.40001 22.0001 8.80001 22.0001C9.33335 22.0001 9.73335 21.8667 10 21.7334C10.1333 20.8001 10.5333 19.8667 11.3333 19.3334C8.26668 18.6667 6.00001 16.9334 6.00001 14.0001C6.00001 12.5334 6.66668 11.0667 7.60001 10.0001C7.46668 9.73338 7.33334 9.06672 7.33334 8.13338C7.33334 7.60005 7.33334 6.93338 7.60001 6.40005C7.60001 6.13338 7.86668 6.00005 8.00001 6.00005H8.13334C8.80001 6.13338 10.1333 6.53338 11.3333 7.73338C12.1333 7.46672 13.0667 7.33338 14 7.33338C14.9333 7.33338 15.8667 7.46672 16.6667 7.73338C17.8667 6.53338 19.3333 6.13338 20 6.00005H20.1333C20.4 6.00005 20.5333 6.13338 20.6667 6.40005C20.6667 6.93338 20.6667 7.60005 20.6667 8.13338C20.6667 9.20005 20.5333 9.73338 20.4 10.0001C21.3333 11.0667 22 12.4001 22 14.0001C22 16.9334 19.7333 18.6667 16.6667 19.3334C17.4667 20.0001 18 21.2001 18 22.4001V25.8667C18 26.2667 18.4 26.6667 18.9333 26.5334C23.8667 24.5334 27.3333 19.7334 27.3333 14.1334C27.3333 6.13338 20.5333 -0.133283 12.5333 0.800051Z" fill="#00A0AD"/>
</svg>
