<svg xmlns="http://www.w3.org/2000/svg" width="25.408" height="25.5" viewBox="0 0 25.408 25.5">
  <g id="icons8-email_1_1" data-name="icons8-email 1 1" transform="translate(-3.293 -3.2)">
    <path id="Path_1" data-name="Path 1" d="M25,7a14.225,14.225,0,0,0-4.1-2.8,13.394,13.394,0,0,0-4.9-1,11,11,0,0,0-3.1.4c-.1,0-.2.1-.4.2-.1.1-.2.2-.2.3-.1.1-.1.2-.1.4v.4a.758.758,0,0,0,.2.4c.1.1.2.2.3.2.1.1.2.1.4.1h.4A10.988,10.988,0,0,1,23.7,8.4,10.657,10.657,0,0,1,26.8,16v2a1.99,1.99,0,0,1-.7,1.6,2.234,2.234,0,0,1-3.2,0,2.36,2.36,0,0,1-.7-1.6V16a6.708,6.708,0,0,0-1.4-4,6.467,6.467,0,0,0-3.6-2.2,6.163,6.163,0,0,0-4.2.6,6.026,6.026,0,0,0-2.8,3.1,6.69,6.69,0,0,0-.2,4.2A5.586,5.586,0,0,0,12.5,21a6.456,6.456,0,0,0,4.1,1,6.759,6.759,0,0,0,3.8-1.8l.3-.3.2.3A4.247,4.247,0,0,0,23,21.8a4.548,4.548,0,0,0,4.9-1.5,4.375,4.375,0,0,0,.8-2.5v-2A12.513,12.513,0,0,0,25,7Zm-4.9,9.8A4.593,4.593,0,0,1,19,19a4.451,4.451,0,0,1-2.1,1.2,2.2,2.2,0,0,1-.8.1,4.146,4.146,0,0,1-1.6-.3,4,4,0,0,1-1.9-1.5,3.891,3.891,0,0,1-.7-2.3,4.713,4.713,0,0,1,1.2-3,4.234,4.234,0,0,1,3-1.2,3.691,3.691,0,0,1,2.3.7,4,4,0,0,1,1.5,1.9A3.241,3.241,0,0,1,20.1,16.8Z" fill="#00a0ad"/>
    <path id="Path_2" data-name="Path 2" d="M8,23.4a1.268,1.268,0,0,1-.1.6.781.781,0,0,1-.4.4c-.2.1-.3.2-.5.2H6.9a.367.367,0,0,1-.3-.1l-.3-.3A12.692,12.692,0,0,1,5.9,8.3L6.2,8c.1,0,.2-.1.4-.1H7c.1.1.2.1.3.2a1.612,1.612,0,0,1,.4.7.844.844,0,0,1-.2.7,10.78,10.78,0,0,0-2.2,6.7,10.037,10.037,0,0,0,2.5,6.6A1.421,1.421,0,0,1,8,23.4Z" fill="#00a0ad"/>
    <path id="Path_3" data-name="Path 3" d="M22.2,27.7a1.025,1.025,0,0,1-1,1H16a13.046,13.046,0,0,1-5.8-1.4,1.024,1.024,0,0,1-.5-.6.8.8,0,0,1,.1-.8,1.024,1.024,0,0,1,.6-.5h.3c.2,0,.3,0,.4.1A10.442,10.442,0,0,0,16,26.7h5.2a1.025,1.025,0,0,1,1,1Z" fill="#00a0ad"/>
    <path id="Path_4" data-name="Path 4" d="M9.5,7.2a1,1,0,1,0-1-1A1,1,0,0,0,9.5,7.2Z" fill="#00a0ad"/>
  </g>
</svg>
