<svg xmlns="http://www.w3.org/2000/svg" width="19.502" height="19.5" viewBox="0 0 19.502 19.5">
  <g id="icons8-email_1" data-name="icons8-email 1" transform="translate(-2.248 -2.25)">
    <path id="Path_5" data-name="Path 5" d="M19.8,12v1.462a1.462,1.462,0,1,1-2.925,0V12a4.875,4.875,0,1,0-1.365,3.364,3.413,3.413,0,0,0,6.24-1.9V12ZM12,9.075a2.925,2.925,0,1,1-2.068.857A2.925,2.925,0,0,1,12,9.075Z" fill="#00a0ad"/>
    <path id="Path_6" data-name="Path 6" d="M20.775,12.975A.975.975,0,0,1,19.8,12,7.8,7.8,0,0,0,12,4.2a7.654,7.654,0,0,0-1.882.234.98.98,0,1,1-.478-1.9A10.082,10.082,0,0,1,12,2.25,9.75,9.75,0,0,1,21.75,12a.975.975,0,0,1-.975.975Z" fill="#00a0ad"/>
    <path id="Path_7" data-name="Path 7" d="M5.291,18.63a.975.975,0,0,1-.751-.351,9.75,9.75,0,0,1-.293-12.2A.974.974,0,1,1,5.8,7.261a7.8,7.8,0,0,0,.234,9.75.975.975,0,0,1-.741,1.609Z" fill="#00a0ad"/>
    <path id="Path_8" data-name="Path 8" d="M15.9,21.75H12a9.751,9.751,0,0,1-4.466-1.082.975.975,0,0,1,.887-1.736A7.722,7.722,0,0,0,12,19.8h3.9a.975.975,0,0,1,0,1.95Z" fill="#00a0ad"/>
    <path id="Path_9" data-name="Path 9" d="M7.125,5.663a.975.975,0,1,0-.975-.975A.975.975,0,0,0,7.125,5.663Z" fill="#00a0ad"/>
  </g>
</svg>
