<svg width="126" height="69" viewBox="0 0 126 69" fill="none" xmlns="http://www.w3.org/2000/svg">
<path d="M117.559 14.358C121.284 14.358 124.304 11.3381 124.304 7.61284C124.304 3.88759 121.284 0.867676 117.559 0.867676C113.833 0.867676 110.813 3.88759 110.813 7.61284C110.813 11.3381 113.833 14.358 117.559 14.358Z" fill="#3FF69A"/>
<path d="M118.508 54.8291H103.119C99.3858 54.8291 96.3594 57.8555 96.3594 61.5887C96.3594 65.3219 99.3858 68.3483 103.119 68.3483H118.508C122.241 68.3483 125.267 65.3219 125.267 61.5887C125.267 57.8555 122.241 54.8291 118.508 54.8291Z" fill="#03DDE7"/>
<path d="M7.23246 68.3194C10.9577 68.3194 13.9776 65.2995 13.9776 61.5743C13.9776 57.849 10.9577 54.8291 7.23246 54.8291C3.50722 54.8291 0.487305 57.849 0.487305 61.5743C0.487305 65.2995 3.50722 68.3194 7.23246 68.3194Z" fill="#8653D6"/>
<path d="M125.397 34.2514V34.95C125.399 36.5704 124.786 38.1311 123.681 39.3168C122.577 40.5026 121.064 41.2252 119.447 41.3386H75.9457C75.7915 41.3386 75.6373 41.3386 75.488 41.3386C73.8724 41.452 72.3599 42.1739 71.2556 43.3587C70.1514 44.5434 69.5375 46.1029 69.5378 47.7224V48.4066C69.5352 49.2495 69.6992 50.0846 70.0201 50.864C70.341 51.6434 70.8127 52.3517 71.4081 52.9484C72.0034 53.5451 72.7107 54.0184 73.4894 54.3411C74.2681 54.6638 75.1028 54.8296 75.9457 54.8289H83.9146C84.1464 54.8295 84.378 54.8424 84.6084 54.8675C86.1775 55.0384 87.6283 55.7824 88.6828 56.9569C89.7372 58.1313 90.3211 59.6537 90.3225 61.232V61.9065C90.3231 62.7485 90.1579 63.5822 89.8361 64.3602C89.5144 65.1382 89.0425 65.8452 88.4474 66.4407C87.8523 67.0363 87.1457 67.5087 86.3679 67.831C85.5902 68.1534 84.7565 68.3193 83.9146 68.3193H27.3468C25.6486 68.3193 24.02 67.6447 22.8191 66.4438C21.6183 65.243 20.9437 63.6144 20.9437 61.9162V61.2417C20.9439 59.6637 21.5268 58.1414 22.5804 56.9669C23.6341 55.7923 25.0844 55.0481 26.653 54.8771C26.8834 54.852 27.115 54.8391 27.3468 54.8386H41.9164C42.7572 54.8386 43.5898 54.673 44.3667 54.3512C45.1436 54.0294 45.8494 53.5577 46.444 52.9632C47.0386 52.3686 47.5102 51.6627 47.832 50.8859C48.1538 50.109 48.3194 49.2764 48.3194 48.4355V47.7417C48.3252 46.1235 47.7175 44.5631 46.6187 43.375C45.52 42.1869 44.0119 41.4593 42.3981 41.3386C42.2488 41.3386 42.0946 41.3386 41.9404 41.3386H12.8206C11.205 41.224 9.69307 40.5009 8.58968 39.3153C7.4863 38.1296 6.87362 36.5696 6.87525 34.95V34.2514C6.87525 32.5532 7.54985 30.9245 8.75066 29.7237C9.95148 28.5229 11.5801 27.8483 13.2783 27.8483H34.2606C36.0495 27.8483 37.7652 27.1377 39.0301 25.8727C40.2951 24.6077 41.0058 22.8921 41.0058 21.1032C41.0058 19.3142 40.2951 17.5986 39.0301 16.3336C37.7652 15.0686 36.0495 14.358 34.2606 14.358H6.74516C4.95623 14.358 3.24057 13.6473 1.97561 12.3824C0.710649 11.1174 0 9.40176 0 7.61283C0 5.82391 0.710649 4.10825 1.97561 2.84329C3.24057 1.57832 4.95623 0.867676 6.74516 0.867676L96.4124 0.867676C98.2014 0.867676 99.917 1.57832 101.182 2.84329C102.447 4.10825 103.158 5.82391 103.158 7.61283C103.158 9.40176 102.447 11.1174 101.182 12.3824C99.917 13.6473 98.2014 14.358 96.4124 14.358H89.6143C87.8253 14.358 86.1097 15.0686 84.8447 16.3336C83.5798 17.5986 82.8691 19.3142 82.8691 21.1032C82.8691 22.8921 83.5798 24.6077 84.8447 25.8727C86.1097 27.1377 87.8253 27.8483 89.6143 27.8483H119.004C120.7 27.8509 122.327 28.5266 123.525 29.7271C124.724 30.9277 125.397 32.5549 125.397 34.2514Z" fill="url(#paint0_linear)"/>
<defs>
<linearGradient id="paint0_linear" x1="0" y1="34.5887" x2="125.397" y2="34.5887" gradientUnits="userSpaceOnUse">
<stop stop-color="#7F56CB"/>
<stop offset="0.5" stop-color="#06DBE9"/>
<stop offset="1" stop-color="#3CF79E"/>
</linearGradient>
</defs>
</svg>
