<svg xmlns="http://www.w3.org/2000/svg" xmlns:xlink="http://www.w3.org/1999/xlink" width="25.6" height="26" viewBox="0 0 25.6 26">
  <defs>
    <clipPath id="clip-path">
      <rect id="Rectangle_1" data-name="Rectangle 1" width="25.6" height="26" fill="#00a0ad"/>
    </clipPath>
  </defs>
  <g id="right-arrow" clip-path="url(#clip-path)">
    <path id="Path_1" data-name="Path 1" d="M13.3,26a.987.987,0,0,1-1-.9,1.088,1.088,0,0,1,.9-1.1A10.969,10.969,0,0,0,23.5,13a1,1,0,0,1,2,0A12.882,12.882,0,0,1,13.3,26Zm-4.5-.6a.367.367,0,0,1-.3-.1,14.722,14.722,0,0,1-2.2-1,1.03,1.03,0,1,1,1-1.8,10.837,10.837,0,0,0,1.9.8,1,1,0,0,1,.6,1.3A.974.974,0,0,1,8.8,25.4ZM3.3,21.6a.909.909,0,0,1-.8-.4,14.29,14.29,0,0,1-1.4-2,1.012,1.012,0,0,1,.4-1.4,1.012,1.012,0,0,1,1.4.4,6.57,6.57,0,0,0,1.2,1.7A1.063,1.063,0,0,1,4,21.3,1.08,1.08,0,0,1,3.3,21.6Zm21-10.4a.974.974,0,0,1-1-.8,15.873,15.873,0,0,0-.7-2,.985.985,0,1,1,1.8-.8,15.546,15.546,0,0,1,.8,2.3,1.028,1.028,0,0,1-.7,1.2A.31.31,0,0,1,24.3,11.2ZM1,10.9H.7A1.086,1.086,0,0,1,0,9.7,13.055,13.055,0,0,1,12.6,0a11.529,11.529,0,0,1,2.6.3A1.037,1.037,0,0,1,16,1.5a1.037,1.037,0,0,1-1.2.8A8.329,8.329,0,0,0,12.6,2,10.927,10.927,0,0,0,2,10.2,1.2,1.2,0,0,1,1,10.9ZM20.9,5.4a1.08,1.08,0,0,1-.7-.3,10.1,10.1,0,0,0-1.6-1.3.984.984,0,0,1-.3-1.4.984.984,0,0,1,1.4-.3,13.933,13.933,0,0,1,1.9,1.5.967.967,0,0,1,0,1.4A.67.67,0,0,1,20.9,5.4Z" fill="#00a0ad"/>
    <path id="Path_2" data-name="Path 2" d="M6,13a1,1,0,0,0,1,1h7v2.793a.5.5,0,0,0,.854.354l3.793-3.793a.5.5,0,0,0,0-.707L14.854,8.854A.5.5,0,0,0,14,9.207V12H7A1,1,0,0,0,6,13Z" fill="#00a0ad"/>
  </g>
</svg>
