<svg xmlns="http://www.w3.org/2000/svg" xmlns:xlink="http://www.w3.org/1999/xlink" width="19.9" height="20" viewBox="0 0 19.9 20">
  <defs>
    <clipPath id="clip-path">
      <rect id="Rectangle_1" data-name="Rectangle 1" width="19.9" height="20" fill="#00a0ad"/>
    </clipPath>
  </defs>
  <g id="smaller-circle" clip-path="url(#clip-path)">
    <path id="Path_1" data-name="Path 1" d="M9.9,20a9.071,9.071,0,0,1-4.3-1,.992.992,0,0,1-.5-1.3,1.15,1.15,0,0,1,1.4-.5,8.075,8.075,0,0,0,3.4.8,8,8,0,1,0,0-16,6.6,6.6,0,0,0-1.4.1,1.012,1.012,0,0,1-1.2-.8A1.072,1.072,0,0,1,8.2.2,8.807,8.807,0,0,1,9.9,0a10,10,0,1,1,0,20ZM2.6,16.2a.909.909,0,0,1-.8-.4A9.41,9.41,0,0,1,.6,13.6a1.04,1.04,0,0,1,.6-1.3,1.04,1.04,0,0,1,1.3.6,8.107,8.107,0,0,0,1,1.8,1.075,1.075,0,0,1-.2,1.4A1.952,1.952,0,0,1,2.6,16.2ZM1,9.8H.9A.993.993,0,0,1,0,8.7,7.172,7.172,0,0,1,.7,6.2.958.958,0,0,1,2,5.7.992.992,0,0,1,2.5,7,13.322,13.322,0,0,0,2,8.9,1.063,1.063,0,0,1,1,9.8Z" fill="#00a0ad"/>
  </g>
</svg>
