<?xml version="1.0" encoding="utf-8"?>
<!-- Generator: Adobe Illustrator 25.4.1, SVG Export Plug-In . SVG Version: 6.00 Build 0)  -->
<svg version="1.1" id="레이어_1" xmlns="http://www.w3.org/2000/svg" xmlns:xlink="http://www.w3.org/1999/xlink" x="0px"
	 y="0px" viewBox="0 0 1700.79 410.13" style="enable-background:new 0 0 1700.79 410.13;" xml:space="preserve">
<style type="text/css">
	.st0{fill:#4472C4;}
	.st1{fill:#F15A24;}
	.st2{fill:none;}
</style>
<g>
	<g>
		<path class="st0" d="M284.29,220.18c-6.06,5.48-9.09,12.66-9.09,21.52c0,8.87,3.03,16.32,9.09,22.39
			c6.06,6.07,13.53,9.1,22.39,9.1h38.48h40.23c6.52,0,12.65,1.22,18.37,3.67c5.71,2.46,10.72,5.83,15.04,10.15s7.7,9.33,10.15,15.04
			s3.68,11.84,3.68,18.36c0,6.53-1.23,12.77-3.68,18.72c-2.45,5.94-5.83,11.14-10.15,15.56c-4.32,4.43-9.33,7.99-15.04,10.67
			c-5.72,2.69-11.84,4.03-18.37,4.03H257.71v-17.49H385.4c7.92,0,14.87-3.03,20.82-9.09c5.94-6.06,8.92-13.53,8.92-22.39
			c0-8.86-2.98-16.03-8.92-21.51c-5.95-5.48-12.89-8.22-20.82-8.22h-40.23h-38.48c-7,0-13.47-1.34-19.42-4.03
			c-5.94-2.68-11.14-6.23-15.56-10.67c-4.43-4.43-7.87-9.62-10.32-15.57c-2.45-5.94-3.68-12.18-3.68-18.71
			c0-6.52,1.23-12.65,3.68-18.37c2.45-5.71,5.89-10.72,10.32-15.04c4.43-4.32,9.62-7.7,15.56-10.15c5.94-2.45,12.42-3.67,19.42-3.67
			h125.94v17.49H306.69C297.82,211.96,290.35,214.7,284.29,220.18z"/>
		<path class="st0" d="M698.49,194.47c12.12,0,23.55,2.27,34.28,6.82c10.73,4.55,20,10.73,27.81,18.54
			c7.81,7.82,13.99,17.09,18.55,27.81c4.55,10.73,6.82,22.16,6.82,34.28v87.46h-17.49v-87.46c0-9.56-1.87-18.59-5.59-27.11
			c-3.73-8.51-8.74-15.91-15.04-22.22c-6.29-6.29-13.7-11.31-22.21-15.04c-8.52-3.73-17.56-5.6-27.11-5.6
			c-9.57,0-18.61,1.87-27.11,5.6c-8.52,3.73-15.92,8.74-22.22,15.04c-6.3,6.3-11.32,13.7-15.04,22.22
			c-3.73,8.52-5.59,17.55-5.59,27.11v87.46h-17.49v-87.46c0-9.56-1.87-18.59-5.6-27.11c-3.73-8.51-8.74-15.91-15.04-22.22
			c-6.3-6.29-13.7-11.31-22.22-15.04c-8.52-3.73-17.55-5.6-27.11-5.6c-9.57,0-18.6,1.87-27.11,5.6
			c-8.52,3.73-15.92,8.74-22.22,15.04c-6.29,6.3-11.32,13.7-15.04,22.22c-3.73,8.52-5.6,17.55-5.6,27.11v87.46h-17.49v-87.46
			c0-12.12,2.33-23.56,6.99-34.28c4.66-10.72,11.02-19.99,19.07-27.81c8.04-7.81,17.31-13.99,27.81-18.54
			c10.5-4.55,21.69-6.82,33.58-6.82c8.62,0,16.96,1.22,25.01,3.67c8.04,2.45,15.45,5.89,22.21,10.32
			c6.76,4.43,12.83,9.62,18.19,15.56c5.36,5.95,9.8,12.43,13.3,19.42c3.5-6.99,7.99-13.47,13.47-19.42
			c5.48-5.94,11.67-11.13,18.54-15.56c6.88-4.43,14.29-7.87,22.22-10.32C681.92,195.69,690.09,194.47,698.49,194.47z"/>
	</g>
	<g>
		<path class="st1" d="M1205.69,344.55c14.92,0,28.1-3.97,39.53-11.9c11.43-7.92,19.82-18.54,25.18-31.83h19.24
			c-3.03,8.86-7.29,17.02-12.77,24.49c-5.48,7.47-11.89,13.88-19.24,19.24c-7.34,5.36-15.45,9.62-24.31,12.77
			c-8.86,3.15-18.07,4.72-27.63,4.72c-12.37,0-23.85-2.28-34.46-6.82s-19.82-10.72-27.63-18.54c-7.82-7.81-13.99-17.02-18.54-27.63
			s-6.82-22.1-6.82-34.46c0-12.12,2.28-23.56,6.82-34.28c4.55-10.72,10.72-19.99,18.54-27.81c7.81-7.81,17.02-13.99,27.63-18.54
			c10.61-4.55,22.1-6.82,34.46-6.82c12.12,0,23.56,2.27,34.28,6.82c10.72,4.55,19.99,10.73,27.81,18.54
			c7.81,7.82,13.99,17.09,18.54,27.81c4.55,10.73,6.82,22.16,6.82,34.28v8.75h-31.49h-125.94c1.4,8.86,4.14,17.02,8.22,24.49
			c4.08,7.47,9.27,13.88,15.56,19.24c6.3,5.37,13.35,9.62,21.17,12.77C1188.49,342.97,1196.82,344.55,1205.69,344.55z
			 M1205.69,204.61c-8.87,0-17.2,1.58-25.01,4.72c-7.82,3.15-14.87,7.41-21.17,12.77c-6.29,5.37-11.49,11.84-15.56,19.42
			c-4.08,7.58-6.82,15.68-8.22,24.31h139.93c-1.4-8.63-4.14-16.73-8.22-24.31c-4.08-7.57-9.27-14.05-15.57-19.42
			c-6.29-5.36-13.41-9.62-21.34-12.77C1222.59,206.19,1214.31,204.61,1205.69,204.61z"/>
		<path class="st1" d="M1416.29,274.93l82.21,82.21l-12.24,12.24l-82.21-82.21l-82.21,82.21l-12.24-12.24l82.21-82.21l-82.21-82.21
			l12.24-12.24l82.21,82.21l82.21-82.21l12.24,12.24L1416.29,274.93z"/>
		<path class="st1" d="M1689.85,274.58c0,12.37-2.34,23.85-7,34.46c-4.66,10.61-11.02,19.82-19.06,27.63
			c-8.05,7.82-17.32,13.99-27.81,18.54c-10.5,4.55-21.7,6.82-33.58,6.82c-12.37,0-23.85-2.28-34.46-6.82s-19.82-10.72-27.63-18.54
			c-7.82-7.81-13.99-17.02-18.54-27.63s-6.82-22.1-6.82-34.46V160.89h17.49v61.21h47.23v17.49h-47.23v34.98
			c0,9.57,1.86,18.6,5.59,27.11c3.73,8.52,8.75,15.92,15.04,22.22c6.29,6.29,13.7,11.32,22.22,15.04c8.51,3.73,17.54,5.6,27.11,5.6
			c9.56,0,18.59-1.86,27.11-5.6c8.51-3.73,15.91-8.75,22.22-15.04c6.29-6.29,11.31-13.7,15.04-22.22c3.73-8.51,5.6-17.54,5.6-27.11
			H1689.85z"/>
	</g>
	<path d="M1697.23,109.95h-34.02c-0.49,0-0.9-0.4-0.9-0.9V92.82c0-0.49,0.4-0.9,0.9-0.9h34.02c0.49,0,0.9,0.4,0.9,0.9v16.24
		C1698.13,109.55,1697.73,109.95,1697.23,109.95z"/>
	<path d="M1633.19,109.95h-34.02c-0.49,0-0.9-0.4-0.9-0.9V92.82c0-0.49,0.4-0.9,0.9-0.9h34.02c0.49,0,0.9,0.4,0.9,0.9v16.24
		C1634.08,109.55,1633.68,109.95,1633.19,109.95z"/>
	<path d="M1569.14,109.95h-34.02c-0.49,0-0.9-0.4-0.9-0.9V92.82c0-0.49,0.4-0.9,0.9-0.9h34.02c0.49,0,0.9,0.4,0.9,0.9v16.24
		C1570.03,109.55,1569.63,109.95,1569.14,109.95z"/>
	<g>
		<g>
			<path d="M1206.96,13.38h10.03l3.94,24.2c0.74,5.21,1.54,10.43,2.27,15.78h0.27c1-5.35,2.07-10.63,3.14-15.78l5.75-24.2h8.49
				l5.68,24.2c1.07,5.08,2.07,10.43,3.14,15.78h0.33c0.73-5.35,1.47-10.63,2.21-15.78l3.94-24.2h9.36l-9.16,49.54h-12.3l-5.55-24.47
				c-0.8-3.88-1.54-7.69-2.14-11.5h-0.27c-0.67,3.81-1.34,7.62-2.14,11.5l-5.41,24.47h-12.1L1206.96,13.38z"/>
			<path d="M1282.43,13.38h11.63l15.91,49.54h-10.36l-3.48-12.7h-16.04l-3.48,12.7h-10.03L1282.43,13.38z M1282.23,42.53H1294
				l-1.47-5.42c-1.54-5.15-2.87-10.83-4.28-16.18h-0.33c-1.27,5.41-2.74,11.03-4.21,16.18L1282.23,42.53z"/>
			<path d="M1312.52,56.63l5.68-6.82c3.54,3.28,8.22,5.48,12.57,5.48c5.15,0,7.89-2.21,7.89-5.68c0-3.68-3.01-4.81-7.42-6.69
				l-6.62-2.81c-5.01-2.07-10.03-6.08-10.03-13.3c0-8.09,7.09-14.31,17.11-14.31c5.75,0,11.5,2.27,15.51,6.35l-5.01,6.22
				c-3.14-2.61-6.42-4.08-10.5-4.08c-4.35,0-7.09,1.94-7.09,5.21c0,3.54,3.48,4.81,7.69,6.48l6.48,2.74
				c6.02,2.47,9.96,6.28,9.96,13.44c0,8.09-6.75,14.97-18.18,14.97C1323.95,63.85,1317.33,61.25,1312.52,56.63z"/>
			<path d="M1357.51,13.38h10.96l8.42,23.2c1.07,3.08,2,6.35,3.01,9.49h0.33c1.07-3.14,1.94-6.42,3.01-9.49l8.22-23.2h10.96v49.54
				h-9.03V42.26c0-4.68,0.74-11.57,1.27-16.25h-0.33l-4.01,11.63l-7.62,20.79h-5.68l-7.69-20.79l-3.94-11.63h-0.27
				c0.47,4.68,1.27,11.57,1.27,16.25v20.66h-8.89V13.38z"/>
			<path d="M1412.06,71.81c5.21-1.94,8.09-5.41,8.02-9.16c-0.2,0-0.4,0-0.6,0c-3.21,0-6.15-2.07-6.15-5.82
				c0-3.54,2.87-5.82,6.35-5.82c4.55,0,7.09,3.61,7.09,9.69c0,7.82-4.55,13.77-12.63,16.45L1412.06,71.81z"/>
			<path d="M1449.9,14.05c0-3.21,2.34-5.35,5.75-5.35c3.34,0,5.68,2.14,5.68,5.35c0,3.28-2.34,5.41-5.68,5.41
				C1452.24,19.46,1449.9,17.32,1449.9,14.05z M1450.7,25.48h9.83v37.44h-9.83V25.48z"/>
			<path d="M1472.42,49.81V33.23h-5.28v-7.29l5.82-0.47l1.14-10.09h8.16v10.09h9.23v7.75h-9.23v16.58c0,4.28,1.74,6.28,5.08,6.28
				c1.2,0,2.67-0.4,3.68-0.8l1.6,7.15c-2.01,0.67-4.61,1.4-7.89,1.4C1475.83,63.85,1472.42,58.17,1472.42,49.81z"/>
			<path d="M1499.03,30.29c4.35-2.41,6.55-5.21,6.55-9.56c-0.27,0.07-0.47,0.07-0.73,0.07c-2.88,0-5.35-1.94-5.35-5.15
				c0-3.41,2.27-5.62,5.35-5.62c4.21,0,6.48,3.34,6.48,9.03c0,6.89-3.34,12.1-10.03,15.51L1499.03,30.29z"/>
			<path d="M1514.27,58.57l4.48-6.15c3.34,2.61,6.55,4.08,10.03,4.08c3.74,0,5.42-1.6,5.42-3.94c0-2.81-3.88-4.08-7.82-5.62
				c-4.75-1.81-10.03-4.68-10.03-10.96c0-6.69,5.41-11.43,13.97-11.43c5.41,0,9.63,2.27,12.7,4.61l-4.41,5.95
				c-2.67-1.94-5.28-3.21-8.02-3.21c-3.41,0-5.01,1.47-5.01,3.61c0,2.74,3.48,3.74,7.42,5.21c4.95,1.87,10.43,4.35,10.43,11.3
				c0,6.55-5.15,11.83-14.91,11.83C1523.5,63.85,1518.02,61.65,1514.27,58.57z"/>
			<path d="M1566.08,25.48h8.02l0.73,4.95h0.2c3.28-3.21,7.09-5.88,12.17-5.88c8.09,0,11.57,5.62,11.57,15.04v23.33h-9.83V40.79
				c0-5.82-1.6-7.82-5.28-7.82c-3.08,0-5.01,1.47-7.76,4.21v25.74h-9.83V25.48z"/>
			<path d="M1606.59,44.2c0-12.43,8.62-19.65,17.98-19.65c9.36,0,17.98,7.22,17.98,19.65s-8.62,19.65-17.98,19.65
				C1615.22,63.85,1606.59,56.63,1606.59,44.2z M1632.53,44.2c0-7.02-2.87-11.63-7.96-11.63c-5.08,0-7.96,4.61-7.96,11.63
				c0,7.09,2.88,11.63,7.96,11.63C1629.66,55.83,1632.53,51.28,1632.53,44.2z"/>
			<path d="M1646.77,25.48h9.83l4.08,18.45c0.74,3.68,1.2,7.22,1.87,10.96h0.27c0.74-3.74,1.4-7.35,2.34-10.96l4.55-18.45h8.69
				l4.68,18.45c0.87,3.68,1.54,7.22,2.34,10.96h0.33c0.67-3.74,1.2-7.29,1.87-10.96l4.08-18.45h9.09l-9.23,37.44H1680l-3.94-16.31
				c-0.8-3.54-1.4-6.95-2.14-10.9h-0.33c-0.73,3.94-1.27,7.42-2.07,10.9l-3.81,16.31h-11.23L1646.77,25.48z"/>
		</g>
	</g>
	<path class="st2" d="M206.84,275.08H94.33c-3.57,0-6.48-2.88-6.51-6.45l-0.05-5.61c-0.03-3.62,2.89-6.57,6.51-6.57h113.08
		l0.72-96.07c0.01-1.27-1-2.31-2.27-2.34l-16.87-0.38c-1.71-0.03-3.39-0.05-5.07-0.05c-51.71,0-97.93,21.72-119.91,56.94
		c-11.27,18.06-36.21,61.97-34.98,122.32c0.55,26.83,5.04,49.67,10,67.1"/>
	<path d="M220.31,404.04c-7.44,0-13.47-6.03-13.47-13.47v-4.64V275.08H94.33c-3.57,0-6.48-2.88-6.51-6.45l-0.05-5.61
		c-0.03-3.62,2.89-6.57,6.51-6.57h113.08l0.72-96.07c0.01-1.27-1-2.31-2.27-2.34l-16.87-0.38c-1.71-0.03-3.39-0.05-5.07-0.05
		c-51.71,0-97.93,21.72-119.91,56.94c-11.27,18.06-36.21,61.97-34.98,122.32c0.48,23.53,4,44,8.2,60.44
		c0.87,3.39-1.74,6.66-5.24,6.66l-12.14,0c-2.52,0-4.75-1.77-5.32-4.23c-31.33-135.96,52.85-219.21,52.85-219.21
		c21.86-23.62,63.31-38.16,105.78-41.33l37.93-0.12c8.27-0.03,14.98,6.68,14.96,14.95l-0.5,228.81c0,1.71,1.38,3.09,3.09,3.09
		h631.04c1.71,0,3.09-1.38,3.09-3.09V136.45c0-4.35,0.92-7.46,2.81-9.52c0.58-0.62,2.34-2.54,8.47-2.54c3.05,0,5.69,0.59,8.31,1.86
		c1.73,0.84,4.67,2.95,8.79,8.2l174.3,229.19V109.95h-0.07v0c0-9.96,8.07-18.03,18.03-18.03h423.43v18.03h-419.6v277.91
		c0,11.66-1.44,14.79-5.44,14.79c-6.56,0.42-13.81-1.19-23.09-13.86l-173.77-228.5v225.64v4.57c0,7.44-6.03,13.47-13.47,13.47
		L220.31,404.04z"/>
</g>
</svg>
