<?xml version="1.0" encoding="UTF-8" standalone="no"?>
<svg xmlns:svg="http://www.w3.org/2000/svg" xmlns="http://www.w3.org/2000/svg" version="1.1" id="layer" x="0px" y="0px" viewBox="0 0 195.8 95.900002" xml:space="preserve" width="195.8" height="95.900002">
   <defs id="defs96" />
   <style type="text/css" id="style73">
	.st0{fill:#3F4043;}
	.st1{fill:url(#SVGID_1_);}
	.st2{fill:url(#SVGID_2_);}
	.st3{fill:#29ABE2;}
</style>

   <linearGradient id="SVGID_1_" gradientUnits="userSpaceOnUse" x1="146.673" y1="371.53461" x2="212.4312" y2="303.78741" gradientTransform="matrix(1,0,0,-1,-23.5,378.6)">
      <stop offset="0.21" style="stop-color:#F15A24" id="stop77" />
      <stop offset="0.6841" style="stop-color:#FBB03B" id="stop79" />
   </linearGradient>
   <path class="st1" d="m 148.2,0 c -10.9,0 -22.8,5.8 -35.4,17.3 -6,5.4 -11.2,11.2 -15.000004,15.9 0,0 6.100004,6.9 12.800004,14.3 3.6,-4.5 8.9,-10.6 14.9,-16.1 11.2,-10.2 18.5,-12.3 22.7,-12.3 15.7,0 28.5,12.9 28.5,28.9 0,15.8 -12.7,28.7 -28.5,28.9 -0.7,0 -1.7,-0.1 -2.7,-0.3 4.6,2.1 9.5,3.6 14.2,3.6 28.8,0 34.4,-19.5 34.8,-20.9 0.8,-3.6 1.3,-7.3 1.3,-11.2 C 195.6,21.5 174.4,0 148.2,0 Z" id="path82" style="fill:url(#SVGID_1_)" />
   <linearGradient id="SVGID_2_" gradientUnits="userSpaceOnUse" x1="96.118103" y1="289.79019" x2="30.359501" y2="357.53729" gradientTransform="matrix(1,0,0,-1,-23.5,378.6)">
      <stop offset="0.21" style="stop-color:#ED1E79" id="stop84" />
      <stop offset="0.8929" style="stop-color:#522785" id="stop86" />
   </linearGradient>
   <path class="st2" d="M 47.6,95.9 C 58.5,95.9 70.4,90.1 83,78.6 89,73.2 94.199996,67.4 97.999996,62.7 97.999996,62.7 91.9,55.8 85.2,48.4 81.6,52.9 76.3,59 70.3,64.5 59.1,74.7 51.8,76.8 47.6,76.8 31.9,76.8 19.1,63.9 19.1,47.9 19.1,32.1 31.8,19.2 47.6,19 c 0.7,0 1.7,0.1 2.7,0.3 C 45.7,17.2 40.8,15.7 36.1,15.7 7.2999997,15.7 1.7,35.2 1.3,36.6 0.5,40.2 0,43.9 0,47.8 0.1,74.3 21.4,95.9 47.6,95.9 Z" id="path89" style="fill:url(#SVGID_2_)" />
   <path class="st3" d="M 69.5,31.8 C 66.4,28.8 51,16.6 36.2,16.2 9.8999997,15.6 2.2,34.2 1.6,36.7 6.5999997,15.7 25.4,0.1 47.7,0 c 18.2,0 36.5,17.4 50.099996,33.2 0,0 0,-0.1 0.1,-0.1 0,0 6.100004,6.9 12.800004,14.3 0,0 7.6,8.8 15.7,16.6 3.1,3 18.5,15.1 33.2,15.5 27,0.7 34.4,-19 34.9,-20.5 -5,21.1 -23.8,36.8 -46.1,36.9 -18.2,0 -36.5,-17.5 -50.200004,-33.2 0,0 -0.1,0.1 -0.1,0.1 C 98.099996,62.8 92,55.9 85.3,48.5 85.2,48.4 77.6,39.6 69.5,31.8 Z m -68,5 c 0,0 0,-0.1 0,-0.2 0.1,0.1 0.1,0.2 0,0.2 z" id="path91" />
</svg>
