<svg width="166" height="63" viewBox="0 0 166 63" fill="none" xmlns="http://www.w3.org/2000/svg">
<rect width="166" height="63" fill="white"/>
<rect opacity="0.5" x="2" y="24" width="162" height="24" rx="12" fill="#E9E4EB"/>
<rect x="66" y="46" width="34" height="5" rx="2.5" fill="#34E8BD"/>
<circle cx="131" cy="30" r="14" fill="#ECE0F2"/>
<rect x="134" y="17.5" width="6" height="6" rx="3" fill="#34E8BD"/>
<path d="M20.4912 23.9937H3.97653V28.207H15.4025V32.1694H3.97653V40H0V20.0314H0.451163H3.97653H20.4912V23.9937Z" fill="#0D203F"/>
<path d="M45.2603 23.9937H28.7456V28.207H40.1716V32.1694H28.7456V36.0272H45.2603V40H28.7456H25.2202H24.7691V20.0314H28.7456H45.2603V23.9937Z" fill="#0D203F"/>
<path d="M70.0084 40H63.8495L56.8407 34.1035H53.5147V40H49.5382V20.0314H62.9681C64.2342 20.0314 65.3848 20.3485 66.4201 20.9827C67.4623 21.617 68.2912 22.4673 68.9067 23.5337C69.5292 24.6001 69.8405 25.778 69.8405 27.0674C69.8405 28.3569 69.5327 29.5348 68.9172 30.6012C68.3017 31.6606 67.4798 32.5039 66.4515 33.1312C65.4233 33.7585 64.2727 34.0826 62.9996 34.1035L70.0084 40ZM53.5147 23.9833V30.162H62.9681C63.7655 30.162 64.4475 29.8589 65.0141 29.2525C65.5807 28.6461 65.864 27.9178 65.864 27.0674C65.864 26.2171 65.5807 25.4922 65.0141 24.8928C64.4475 24.2865 63.7655 23.9833 62.9681 23.9833H53.5147Z" fill="#0D203F"/>
<path d="M92.763 20H94.7565V39.9686H90.7799V27.4647L85.8067 36.1213H83.2361L78.2628 27.4647V39.9686H74.2863V20H76.2798H78.5671L84.5161 30.3711L90.4757 20H92.763Z" fill="#0D203F"/>
<path d="M119.431 20.0314L111.331 30.7998V40H107.355V30.7371L99.0343 20.0314H104.071L109.348 26.8165L114.458 20.0314H119.431Z" fill="#0D203F"/>
<path d="M131.116 40C132.515 40 133.827 39.7421 135.051 39.2263C136.282 38.7036 137.359 37.9857 138.283 37.0727C139.213 36.1596 139.94 35.1002 140.465 33.8944C140.997 32.6817 141.262 31.3887 141.262 30.0157C141.262 28.6357 140.997 27.3427 140.465 26.137C139.94 24.9312 139.213 23.8718 138.283 22.9587C137.359 22.0457 136.282 21.3312 135.051 20.8155C133.827 20.2927 132.515 20.0314 131.116 20.0314C129.718 20.0314 128.402 20.2927 127.171 20.8155C125.947 21.3312 124.87 22.0457 123.94 22.9587C123.017 23.8718 122.289 24.9312 121.757 26.137C121.233 27.3427 120.971 28.6357 120.971 30.0157C120.971 31.3887 121.233 32.6817 121.757 33.8944C122.289 35.1002 123.017 36.1596 123.94 37.0727C124.87 37.9857 125.947 38.7036 127.171 39.2263C128.402 39.7421 129.718 40 131.116 40ZM131.116 24.0146C132.236 24.0146 133.257 24.2865 134.18 24.8301C135.103 25.3668 135.838 26.0917 136.384 27.0047C136.936 27.9108 137.212 28.9144 137.212 30.0157C137.212 31.1169 136.936 32.1241 136.384 33.0371C135.838 33.9432 135.103 34.6681 134.18 35.2117C133.257 35.7484 132.236 36.0167 131.116 36.0167C129.997 36.0167 128.976 35.7484 128.053 35.2117C127.129 34.6681 126.391 33.9432 125.839 33.0371C125.293 32.1241 125.021 31.1169 125.021 30.0157C125.021 28.9144 125.293 27.9108 125.839 27.0047C126.391 26.0917 127.129 25.3668 128.053 24.8301C128.976 24.2865 129.997 24.0146 131.116 24.0146Z" fill="#0D203F"/>
<path d="M162.023 20.0314H166V40H164.006H161.436L149.506 25.5619V40H145.53V20.0314H150.094L162.023 34.4694V20.0314Z" fill="#0D203F"/>
</svg>
