<svg viewBox="0 0 133.11 31.04" xmlns="http://www.w3.org/2000/svg"><path d="m14.8 14.89c1.95-.18 3.85-.33 5.73-.54.81-.09 1.6-.32 2.41-.47 1.58-.3 3.16-.55 4.73-.89 1.41-.31 2.8-.71 4.21-1.06.4-.1.81-.14 1.21-.22.43-.1.57.08.56.49-.01 1.2-.02 2.4 0 3.6.04 3.26.07 6.53.12 9.79 0 .43-.11.66-.53.84-3.96 1.73-8.07 2.89-12.34 3.55-1.41.22-2.81.49-4.22.74-1.65.29-1.71.25-1.73-1.4-.06-4.68-.11-9.36-.17-14.04 0-.11.01-.23.02-.4zm18.71-13.79v1.61c0 2.3.01 4.6.03 6.9 0 .96-.07 1.07-1.03 1.26-3.64.74-7.28 1.48-10.92 2.22-.17.04-.34.02-.54.03-.03-.12-.07-.22-.07-.31-.04-2.95-.07-5.89-.11-8.84 0-.12 0-.24-.01-.35-.2-1.24.16-1.11 1.13-1.23 3.44-.42 6.89-.8 10.34-1.19.35-.04.7-.06 1.19-.1zm-22.63 12.87c-.05-.74-.11-1.4-.13-2.07-.09-2.85-.16-5.7-.26-8.54-.02-.49.13-.64.63-.63 2.04.02 4.08.01 6.11 0 .57 0 1.14-.08 1.71-.08.14 0 .37.16.4.28.11.55.23 1.12.24 1.68.06 2.65.1 5.3.14 7.95.01.83.14.83-.8.96-2.5.36-5 .48-7.51.45-.16 0-.31 0-.53 0zm-2.81 17.07c0-1.68.02-3.33 0-4.97-.05-3.28-.13-6.56-.19-9.84 0-.27.03-.55.11-.81.11-.36.35-.56.79-.55 1.37.05 2.75.07 4.12.08.42 0 .53.17.53.56 0 2.16 0 4.32.03 6.49.03 2.77.05 5.54.1 8.31.01.54-.19.73-.69.73-1.55 0-3.09 0-4.79 0zm-3.78-29c1.66.28 3.27.54 4.96.83.03.25.1.58.11.9.05 3.17.1 6.33.14 9.5.01.76 0 .8-.75.73-1.29-.13-2.57-.31-3.85-.51-.15-.02-.35-.25-.4-.41-.08-.28-.08-.58-.09-.87-.03-3.15-.06-6.3-.09-9.44 0-.21-.02-.42-.04-.72zm-.48 12.13c.73.11 1.5.23 2.12.33-.07.85-.18 1.58-.17 2.3.01 4.41.05 8.81.07 13.22 0 .15-.02.31-.04.5-.57-.05-1.11-.08-1.64-.16-.13-.02-.32-.2-.33-.33-.13-1.11-.27-2.22-.31-3.33-.06-1.75-.02-3.5-.05-5.25-.02-1.38-.11-2.77-.1-4.15 0-1.03-.24-2.11.45-3.12zm-3.81-14.17c.53.23 1 .43 1.54.67.13 3.83.27 7.74.41 11.72-1.2-.59-1.48-1.46-1.52-2.59-.08-3.14-.28-6.28-.43-9.42 0-.12 0-.23 0-.38zm.41 12.57c.58.33.75.77.74 1.44-.04 3.32 0 6.64.02 9.97 0 1.08 0 2.15-.12 3.24-.07-.55-.2-1.1-.22-1.66-.1-3.32-.17-6.64-.26-9.96-.03-1-.1-2-.16-3.03z"/><path d="m14.8 14.89c1.95-.18 3.85-.33 5.73-.54.81-.09 1.6-.32 2.41-.47 1.58-.3 3.16-.55 4.73-.89 1.41-.31 2.8-.71 4.21-1.06.4-.1.81-.14 1.21-.22.43-.1.57.08.56.49-.01 1.2-.02 2.4 0 3.6.04 3.26.07 6.53.12 9.79 0 .43-.11.66-.53.84-3.96 1.73-8.07 2.89-12.34 3.55-1.41.22-2.81.49-4.22.74-1.65.29-1.71.25-1.73-1.4-.06-4.68-.11-9.36-.17-14.04 0-.11.01-.23.02-.4zm18.71-13.79v1.61c0 2.3.01 4.6.03 6.9 0 .96-.07 1.07-1.03 1.26-3.64.74-7.28 1.48-10.92 2.22-.17.04-.34.02-.54.03-.03-.12-.07-.22-.07-.31-.04-2.95-.07-5.89-.11-8.84 0-.12 0-.24-.01-.35-.2-1.24.16-1.11 1.13-1.23 3.44-.42 6.89-.8 10.34-1.19.35-.04.7-.06 1.19-.1zm-22.63 12.87c-.05-.74-.11-1.4-.13-2.07-.09-2.85-.16-5.7-.26-8.54-.02-.49.13-.64.63-.63 2.04.02 4.08.01 6.11 0 .57 0 1.14-.08 1.71-.08.14 0 .37.16.4.28.11.55.23 1.12.24 1.68.06 2.65.1 5.3.14 7.95.01.83.14.83-.8.96-2.5.36-5 .48-7.51.45-.16 0-.31 0-.53 0zm-2.81 17.07c0-1.68.02-3.33 0-4.97-.05-3.28-.13-6.56-.19-9.84 0-.27.03-.55.11-.81.11-.36.35-.56.79-.55 1.37.05 2.75.07 4.12.08.42 0 .53.17.53.56 0 2.16 0 4.32.03 6.49.03 2.77.05 5.54.1 8.31.01.54-.19.73-.69.73-1.55 0-3.09 0-4.79 0zm-3.78-29c1.66.28 3.27.54 4.96.83.03.25.1.58.11.9.05 3.17.1 6.33.14 9.5.01.76 0 .8-.75.73-1.29-.13-2.57-.31-3.85-.51-.15-.02-.35-.25-.4-.41-.08-.28-.08-.58-.09-.87-.03-3.15-.06-6.3-.09-9.44 0-.21-.02-.42-.04-.72zm-.48 12.13c.73.11 1.5.23 2.12.33-.07.85-.18 1.58-.17 2.3.01 4.41.05 8.81.07 13.22 0 .15-.02.31-.04.5-.57-.05-1.11-.08-1.64-.16-.13-.02-.32-.2-.33-.33-.13-1.11-.27-2.22-.31-3.33-.06-1.75-.02-3.5-.05-5.25-.02-1.38-.11-2.77-.1-4.15 0-1.03-.24-2.11.45-3.12zm-3.81-14.17c.53.23 1 .43 1.54.67.13 3.83.27 7.74.41 11.72-1.2-.59-1.48-1.46-1.52-2.59-.08-3.14-.28-6.28-.43-9.42 0-.12 0-.23 0-.38zm.41 12.57c.58.33.75.77.74 1.44-.04 3.32 0 6.64.02 9.97 0 1.08 0 2.15-.12 3.24-.07-.55-.2-1.1-.22-1.66-.1-3.32-.17-6.64-.26-9.96-.03-1-.1-2-.16-3.03z"/><path d="m47.08 6.25h4.67v11.97c0 1.14-.29 2.14-.86 3s-1.34 1.53-2.34 2.01c-.99.48-2.13.72-3.42.72-1.12 0-2.14-.2-3.07-.58-.93-.39-1.66-1-2.22-1.84s-.82-1.93-.82-3.27h4.74c.02.44.09.81.23 1.11.13.3.32.53.56.68s.54.23.88.23.65-.08.89-.23.42-.38.55-.69.19-.68.2-1.13v-11.98z"/><path d="m57.34 23.7h-5.11l5.76-17.45h6.48l5.76 17.45h-5.11l-3.82-12.65h-.14zm-.96-6.88h9.61v3.54h-9.61z"/><path d="m70.7 23.7v-17.45h12.27v3.82h-7.53v3h6.78v3.82h-6.78v6.82h-4.74z"/><path d="m88.27 23.7v-17.45h1.59v16.02h8.32v1.43z"/><path d="m103.31 24c-.79 0-1.51-.15-2.17-.46s-1.17-.76-1.56-1.35-.58-1.3-.58-2.14c0-.65.12-1.19.37-1.64.24-.44.59-.81 1.04-1.09s.98-.51 1.59-.67c.61-.17 1.29-.29 2.03-.38.73-.09 1.35-.17 1.86-.24s.9-.18 1.16-.32c.27-.15.4-.39.4-.72v-.31c0-.89-.27-1.6-.8-2.11s-1.29-.77-2.29-.77-1.71.21-2.31.62c-.59.42-1.01.9-1.25 1.47l-1.44-.52c.29-.72.7-1.29 1.23-1.72.52-.43 1.11-.74 1.76-.93s1.3-.29 1.97-.29c.5 0 1.02.07 1.56.2s1.05.36 1.51.68c.47.32.84.77 1.13 1.34s.44 1.29.44 2.17v8.89h-1.52v-2.07h-.09c-.18.39-.45.76-.81 1.12s-.81.66-1.35.89-1.17.35-1.9.35zm.21-1.39c.81 0 1.51-.18 2.1-.54s1.05-.83 1.37-1.43.48-1.25.48-1.96v-1.89c-.11.11-.3.2-.57.29-.26.08-.57.16-.91.23s-.69.12-1.03.17c-.34.04-.65.08-.92.12-.74.09-1.37.23-1.89.43s-.92.46-1.2.8-.42.77-.42 1.3c0 .8.28 1.41.85 1.84.57.44 1.28.65 2.14.65z"/><path d="m111.53 23.7v-17.45h1.53v6.86h.14c.17-.39.42-.8.74-1.21s.74-.76 1.27-1.04 1.19-.42 1.99-.42c1.07 0 2.02.28 2.83.85s1.45 1.35 1.9 2.37c.46 1.01.68 2.19.68 3.54s-.23 2.54-.68 3.55c-.45 1.02-1.08 1.81-1.89 2.38s-1.75.85-2.82.85c-.8 0-1.46-.14-1.99-.43s-.96-.63-1.28-1.05-.57-.83-.75-1.22h-.19v2.43h-1.47zm1.5-6.54c0 1.06.16 1.99.47 2.81s.77 1.45 1.36 1.92c.59.46 1.31.7 2.16.7s1.6-.24 2.21-.72 1.06-1.13 1.37-1.95.47-1.74.47-2.75-.15-1.91-.46-2.72-.77-1.45-1.37-1.92-1.34-.71-2.22-.71-1.58.23-2.17.69-1.05 1.09-1.36 1.89-.47 1.73-.47 2.77z"/><path d="m132.93 13.48-1.39.39c-.14-.39-.33-.75-.58-1.07s-.58-.57-.98-.76-.9-.28-1.49-.28c-.89 0-1.61.21-2.18.63s-.85.96-.85 1.63c0 .56.2 1.02.58 1.37.39.35.99.63 1.8.83l1.98.49c1.1.27 1.92.69 2.47 1.27s.82 1.31.82 2.18c0 .74-.2 1.4-.61 1.97s-.98 1.02-1.71 1.35-1.58.49-2.54.49c-1.28 0-2.33-.29-3.16-.87s-1.36-1.41-1.59-2.5l1.46-.36c.19.78.56 1.37 1.1 1.76.55.4 1.27.6 2.17.6 1.01 0 1.81-.23 2.41-.68s.9-1.02.9-1.7c0-.53-.18-.97-.53-1.33s-.89-.63-1.6-.8l-2.14-.51c-1.14-.27-1.98-.71-2.52-1.3s-.82-1.32-.82-2.2c0-.72.2-1.36.59-1.9.39-.55.93-.98 1.62-1.29s1.47-.47 2.35-.47c1.2 0 2.16.27 2.88.81s1.24 1.29 1.55 2.24z"/></svg>