<svg viewBox="0 0 134.43 31.37" xmlns="http://www.w3.org/2000/svg"><path d="m14.8 14.89c1.95-.18 3.85-.33 5.73-.54.81-.09 1.6-.32 2.41-.47 1.58-.3 3.16-.55 4.73-.89 1.41-.31 2.8-.71 4.21-1.06.4-.1.81-.14 1.21-.22.43-.1.57.08.56.49-.01 1.2-.02 2.4 0 3.6.04 3.26.07 6.53.12 9.79 0 .43-.11.66-.53.84-3.96 1.73-8.07 2.89-12.34 3.55-1.41.22-2.81.49-4.22.74-1.65.29-1.71.25-1.73-1.4-.06-4.68-.11-9.36-.17-14.04 0-.11.01-.23.02-.4zm18.71-13.79v1.61c0 2.3.01 4.6.03 6.9 0 .96-.07 1.07-1.03 1.26-3.64.74-7.28 1.48-10.92 2.22-.17.04-.34.02-.54.03-.03-.12-.07-.22-.07-.31-.04-2.95-.07-5.89-.11-8.84 0-.12 0-.24-.01-.35-.2-1.24.16-1.11 1.13-1.23 3.44-.42 6.89-.8 10.34-1.19.35-.04.7-.06 1.19-.1zm-22.63 12.87c-.05-.74-.11-1.4-.13-2.07-.09-2.85-.16-5.7-.26-8.54-.02-.49.13-.64.63-.63 2.04.02 4.08.01 6.11 0 .57 0 1.14-.08 1.71-.08.14 0 .37.16.4.28.11.55.23 1.12.24 1.68.06 2.65.1 5.3.14 7.95.01.83.14.83-.8.96-2.5.36-5 .48-7.51.45-.16 0-.31 0-.53 0zm-2.81 17.07c0-1.68.02-3.33 0-4.97-.05-3.28-.13-6.56-.19-9.84 0-.27.03-.55.11-.81.11-.36.35-.56.79-.55 1.37.05 2.75.07 4.12.08.42 0 .53.17.53.56 0 2.16 0 4.32.03 6.49.03 2.77.05 5.54.1 8.31.01.54-.19.73-.69.73-1.55 0-3.09 0-4.79 0zm-3.78-29c1.66.28 3.27.54 4.96.83.03.25.1.58.11.9.05 3.17.1 6.33.14 9.5.01.76 0 .8-.75.73-1.29-.13-2.57-.31-3.85-.51-.15-.02-.35-.25-.4-.41-.08-.28-.08-.58-.09-.87-.03-3.15-.06-6.3-.09-9.44 0-.21-.02-.42-.04-.72zm-.48 12.13c.73.11 1.5.23 2.12.33-.07.85-.18 1.58-.17 2.3.01 4.41.05 8.81.07 13.22 0 .15-.02.31-.04.5-.57-.05-1.11-.08-1.64-.16-.13-.02-.32-.2-.33-.33-.13-1.11-.27-2.22-.31-3.33-.06-1.75-.02-3.5-.05-5.25-.02-1.38-.11-2.77-.1-4.15 0-1.03-.24-2.11.45-3.12zm-3.81-14.17c.53.23 1 .43 1.54.67.13 3.83.27 7.74.41 11.72-1.2-.59-1.48-1.46-1.52-2.59-.08-3.14-.28-6.28-.43-9.42 0-.12 0-.23 0-.38zm.41 12.57c.58.33.75.77.74 1.44-.04 3.32 0 6.64.02 9.97 0 1.08 0 2.15-.12 3.24-.07-.55-.2-1.1-.22-1.66-.1-3.32-.17-6.64-.26-9.96-.03-1-.1-2-.16-3.03z"/><path d="m14.8 14.89c1.95-.18 3.85-.33 5.73-.54.81-.09 1.6-.32 2.41-.47 1.58-.3 3.16-.55 4.73-.89 1.41-.31 2.8-.71 4.21-1.06.4-.1.81-.14 1.21-.22.43-.1.57.08.56.49-.01 1.2-.02 2.4 0 3.6.04 3.26.07 6.53.12 9.79 0 .43-.11.66-.53.84-3.96 1.73-8.07 2.89-12.34 3.55-1.41.22-2.81.49-4.22.74-1.65.29-1.71.25-1.73-1.4-.06-4.68-.11-9.36-.17-14.04 0-.11.01-.23.02-.4zm18.71-13.79v1.61c0 2.3.01 4.6.03 6.9 0 .96-.07 1.07-1.03 1.26-3.64.74-7.28 1.48-10.92 2.22-.17.04-.34.02-.54.03-.03-.12-.07-.22-.07-.31-.04-2.95-.07-5.89-.11-8.84 0-.12 0-.24-.01-.35-.2-1.24.16-1.11 1.13-1.23 3.44-.42 6.89-.8 10.34-1.19.35-.04.7-.06 1.19-.1zm-22.63 12.87c-.05-.74-.11-1.4-.13-2.07-.09-2.85-.16-5.7-.26-8.54-.02-.49.13-.64.63-.63 2.04.02 4.08.01 6.11 0 .57 0 1.14-.08 1.71-.08.14 0 .37.16.4.28.11.55.23 1.12.24 1.68.06 2.65.1 5.3.14 7.95.01.83.14.83-.8.96-2.5.36-5 .48-7.51.45-.16 0-.31 0-.53 0zm-2.81 17.07c0-1.68.02-3.33 0-4.97-.05-3.28-.13-6.56-.19-9.84 0-.27.03-.55.11-.81.11-.36.35-.56.79-.55 1.37.05 2.75.07 4.12.08.42 0 .53.17.53.56 0 2.16 0 4.32.03 6.49.03 2.77.05 5.54.1 8.31.01.54-.19.73-.69.73-1.55 0-3.09 0-4.79 0zm-3.78-29c1.66.28 3.27.54 4.96.83.03.25.1.58.11.9.05 3.17.1 6.33.14 9.5.01.76 0 .8-.75.73-1.29-.13-2.57-.31-3.85-.51-.15-.02-.35-.25-.4-.41-.08-.28-.08-.58-.09-.87-.03-3.15-.06-6.3-.09-9.44 0-.21-.02-.42-.04-.72zm-.48 12.13c.73.11 1.5.23 2.12.33-.07.85-.18 1.58-.17 2.3.01 4.41.05 8.81.07 13.22 0 .15-.02.31-.04.5-.57-.05-1.11-.08-1.64-.16-.13-.02-.32-.2-.33-.33-.13-1.11-.27-2.22-.31-3.33-.06-1.75-.02-3.5-.05-5.25-.02-1.38-.11-2.77-.1-4.15 0-1.03-.24-2.11.45-3.12zm-3.81-14.17c.53.23 1 .43 1.54.67.13 3.83.27 7.74.41 11.72-1.2-.59-1.48-1.46-1.52-2.59-.08-3.14-.28-6.28-.43-9.42 0-.12 0-.23 0-.38zm.41 12.57c.58.33.75.77.74 1.44-.04 3.32 0 6.64.02 9.97 0 1.08 0 2.15-.12 3.24-.07-.55-.2-1.1-.22-1.66-.1-3.32-.17-6.64-.26-9.96-.03-1-.1-2-.16-3.03z"/><text font-size="24" transform="translate(38.77 23.7)"><tspan font-family="InterV-Black, 'Inter V'" font-weight="800" letter-spacing="-.05em" x="0" y="0">JAF</tspan><tspan font-family="InterV-Light, 'Inter V'" font-weight="300" letter-spacing="-.08em" x="47.19" y="0">Labs</tspan></text></svg>