<?xml version="1.0" encoding="UTF-8" standalone="no"?>
<!-- Created with Inkscape (http://www.inkscape.org/) -->

<svg
   version="1.1"
   id="svg244"
   width="107.63986"
   height="28.524"
   viewBox="0 0 107.63986 28.524"
   sodipodi:docname="nor2-logo-dark-inkscape.svg"
   inkscape:version="1.2 (dc2aedaf03, 2022-05-15)"
   xmlns:inkscape="http://www.inkscape.org/namespaces/inkscape"
   xmlns:sodipodi="http://sodipodi.sourceforge.net/DTD/sodipodi-0.dtd"
   xmlns="http://www.w3.org/2000/svg"
   xmlns:svg="http://www.w3.org/2000/svg">
  <defs
     id="defs248" />
  <sodipodi:namedview
     id="namedview246"
     pagecolor="#505050"
     bordercolor="#eeeeee"
     borderopacity="1"
     inkscape:showpageshadow="0"
     inkscape:pageopacity="0"
     inkscape:pagecheckerboard="0"
     inkscape:deskcolor="#505050"
     showgrid="false"
     inkscape:zoom="2.8697365"
     inkscape:cx="24.740947"
     inkscape:cy="14.461258"
     inkscape:window-width="1387"
     inkscape:window-height="1230"
     inkscape:window-x="3073"
     inkscape:window-y="114"
     inkscape:window-maximized="0"
     inkscape:current-layer="g252" />
  <g
     id="g252"
     inkscape:groupmode="layer"
     inkscape:label="Page 1"
     transform="matrix(1.3333333,0,0,-1.3333333,-163.44813,164.01813)">
    <g
       id="g256"
       transform="translate(193.032,111.0909)">
      <path
         d="M 0,0 H 4.138 V -1.078 H 6.146 V 0 h 4.138 V -9.47 H 0 Z"
         style="fill:#c1b2ea;fill-opacity:1;fill-rule:evenodd;stroke:none"
         id="path258" />
    </g>
    <g
       id="g260"
       transform="translate(203.3158,112.7293)">
      <path
         d="m 0,0 h -10.284 v 6.327 h 7.91 V 7.91 h -7.91 v 2.374 H 0 V 3.954 H -7.913 V 2.371 H 0 Z"
         style="fill:#623bcb;fill-opacity:1;fill-rule:nonzero;stroke:none"
         id="path262" />
    </g>
    <g
       id="g264"
       transform="translate(173.4111,101.6206)">
      <path
         d="m 0,0 v 17.792 l 3.6,3.601 H 16.044 V 16.044 H 6.439 V 0 Z m -28.342,0 v 17.792 l -3.6,3.601 H -50.825 V 0 h 6.439 v 16.044 h 9.605 V 0 Z m 9.369,16.044 h 9.605 V 5.348 h -9.605 z M -2.929,3.6 v 14.192 l -3.6,3.601 h -15.283 l -3.601,-3.601 V 3.6 L -21.812,0 h 15.283 z"
         style="fill:#231f20;fill-opacity:1;fill-rule:nonzero;stroke:none"
         id="path266" />
    </g>
  </g>
</svg>
