<svg id="Layer_1" data-name="Layer 1" xmlns="http://www.w3.org/2000/svg" viewBox="0 0 1032.45 275.4"><defs><style>.cls-1{fill:#00ad00;}</style></defs><path class="cls-1" d="M58.75,58.75C23.24,76.18,0,105,0,137.7s23.24,61.52,58.75,79c-11-22.36-17.44-49.57-17.44-79s6.46-56.59,17.44-78.95"/><path class="cls-1" d="M216.65,58.75c11,22.36,17.43,49.57,17.43,78.95s-6.46,56.59-17.43,79c35.51-17.43,58.75-46.28,58.75-79s-23.24-61.52-58.75-78.95"/><path class="cls-1" d="M216.65,58.75C199.21,23.24,170.36,0,137.69,0S76.18,23.24,58.74,58.75c22.36-11,49.58-17.44,78.95-17.44s56.6,6.46,79,17.44"/><path class="cls-1" d="M58.75,216.65C76.18,252.16,105,275.4,137.7,275.4s61.51-23.24,79-58.75c-22.36,11-49.57,17.44-79,17.44s-56.6-6.47-78.95-17.44"/><path d="M392.79,134.76h32.47q18.94,0,26.94-8t8-22q0-14.2-8-22.21t-26.94-8H392.79Zm-18.93,81.83V58.78h51.85q18.48,0,30.44,6.09t17.69,16.46a47.45,47.45,0,0,1,5.76,23.44A47.89,47.89,0,0,1,474,128q-5.65,10.38-17.59,16.57t-30.66,6.2H392.79v65.83Z"/><path d="M493.15,216.59V104.77h17.14l1.58,21.42a40.42,40.42,0,0,1,15.78-17.58q10.59-6.56,26.15-6.54V121.9h-5.18a46.8,46.8,0,0,0-18.27,3.5,27.76,27.76,0,0,0-13.3,11.84q-5,8.34-5,23v56.36Z"/><path d="M614.79,203.07a35.89,35.89,0,0,0,18-4.74,35.35,35.35,0,0,0,13.53-14.19q5.17-9.48,5.18-23.46t-5.07-23.44A34.63,34.63,0,0,0,633.06,123a35.48,35.48,0,0,0-49.38,14.21q-5.19,9.47-5.18,23.44t5.18,23.46a35.63,35.63,0,0,0,13.41,14.19,34.9,34.9,0,0,0,17.7,4.74m0,16.23a56.34,56.34,0,0,1-28.41-7.21,52.17,52.17,0,0,1-19.94-20.4q-7.34-13.2-7.34-31t7.45-31a52.58,52.58,0,0,1,20.18-20.41,59.77,59.77,0,0,1,56.92,0,52.18,52.18,0,0,1,20,20.41q7.32,13.19,7.32,31t-7.44,31a52.76,52.76,0,0,1-20.18,20.4,56.92,56.92,0,0,1-28.52,7.21"/><path d="M776.66,83.36a12.81,12.81,0,0,1-9.24-3.73,12.47,12.47,0,0,1-3.83-9.35,11.86,11.86,0,0,1,3.83-9,13.78,13.78,0,0,1,18.6,0,12.05,12.05,0,0,1,3.72,9,12.73,12.73,0,0,1-13.08,13.08M697.53,216.59V120.77h-16.9v-16h16.9V85.39q0-16.24,8.12-23.68t23.67-7.43h11.27V70.5h-8.34c-5.72,0-9.77,1.17-12.18,3.49s-3.61,6.28-3.61,11.85v18.93H785.9V216.59H767V120.77H716.46v95.82Z"/><path d="M853.44,203.29a30.87,30.87,0,0,0,18.6-5.63A36,36,0,0,0,883.88,183a45.78,45.78,0,0,0,4.06-18.95v-.22H859.31q-16.68,0-23.56,5.74a17.91,17.91,0,0,0-6.88,14.33A17.37,17.37,0,0,0,835.29,198q6.44,5.3,18.15,5.29m-2.93,16q-14,0-23.22-4.73a32.19,32.19,0,0,1-13.75-12.63A33.9,33.9,0,0,1,809,184.8q0-17.12,13.07-26.37t35.62-9.25h30.21v-1.34q0-14.67-7.67-22.21t-20.51-7.55q-11.06,0-19,5.52t-10,16.12h-19.4a35.94,35.94,0,0,1,8.24-20.52,45.85,45.85,0,0,1,17.7-12.74,58.16,58.16,0,0,1,22.54-4.39q23.44,0,35.28,12.51t11.83,33.26V216.6H890l-1.13-20.07A44.43,44.43,0,0,1,875,212.65q-9.13,6.65-24.47,6.65"/><path d="M932.12,216.59V104.77h17.13l1.13,20.06a40.62,40.62,0,0,1,15.56-16.68,43.83,43.83,0,0,1,23-6.08q19.85,0,31.68,12.06t11.84,37.09v65.37h-19V153.25q0-35-28.85-34.95a31.19,31.19,0,0,0-24,10.48q-9.57,10.5-9.58,29.87v57.94Z"/></svg>