<svg width="420" height="100" viewBox="0 0 420 100" fill="none" xmlns="http://www.w3.org/2000/svg">
<rect width="100" height="100" fill="white"/>
<path d="M0 0L25 25V75L0 50V0Z" fill="#FF375F"/>
<path d="M0 50L50 100H0V50Z" fill="#4DD0E1"/>
<path d="M75 75L100 100H50L75 75Z" fill="#5E5CE6"/>
<path d="M25 25L50 50L25 75V25Z" fill="#BF5AF2"/>
<path d="M100 0V100L50 50L100 0Z" fill="#30D158"/>
<path d="M100 0L50 50L0 0H100Z" fill="#0A84FF"/>
<path d="M50 50L75 75L50 100L25 75L50 50Z" fill="#FFD60A"/>
<path d="M140.2 75C136.887 75 134.25 74.0433 132.29 72.13C130.377 70.2167 129.42 67.6733 129.42 64.5V42.8H118.64V36.5H129.42V25.65H136.35V36.5H151.54V42.8H136.35V64.43C136.35 65.69 136.7 66.7167 137.4 67.51C138.147 68.3033 139.127 68.7 140.34 68.7H150.84V75H140.2ZM174.403 75.7C170.343 75.7 167.146 74.6733 164.813 72.62C162.526 70.52 161.383 67.6967 161.383 64.15C161.383 60.51 162.573 57.6633 164.953 55.61C167.379 53.51 170.669 52.46 174.823 52.46H186.023V48.82C186.023 46.58 185.323 44.8533 183.923 43.64C182.569 42.38 180.679 41.75 178.253 41.75C176.059 41.75 174.216 42.24 172.723 43.22C171.276 44.1533 170.389 45.39 170.063 46.93H163.273C163.459 44.69 164.229 42.7533 165.583 41.12C166.936 39.44 168.709 38.1333 170.903 37.2C173.096 36.2667 175.569 35.8 178.323 35.8C182.803 35.8 186.349 36.9667 188.963 39.3C191.623 41.5867 192.953 44.69 192.953 48.61V75H186.163V67.86H186.093C185.766 70.2867 184.553 72.2 182.453 73.6C180.353 75 177.669 75.7 174.403 75.7ZM176.293 70.31C179.093 70.31 181.403 69.61 183.223 68.21C185.089 66.7633 186.023 64.92 186.023 62.68V57.43H174.963C172.909 57.43 171.276 57.99 170.063 59.11C168.896 60.23 168.313 61.7467 168.313 63.66C168.313 65.76 169.013 67.3933 170.413 68.56C171.813 69.7267 173.773 70.31 176.293 70.31ZM205.105 75V36.5H211.965V43.85H212.105C212.432 41.2833 213.482 39.3 215.255 37.9C217.029 36.5 219.385 35.8 222.325 35.8C226.152 35.8 229.209 37.0133 231.495 39.44C233.782 41.8667 234.925 45.1333 234.925 49.24V75H227.995V50.01C227.995 47.3967 227.295 45.39 225.895 43.99C224.495 42.5433 222.582 41.82 220.155 41.82C217.635 41.82 215.652 42.59 214.205 44.13C212.759 45.6233 212.035 47.77 212.035 50.57V75H205.105ZM252.048 87.6V81.44H264.088C267.915 81.44 269.828 79.62 269.828 75.98V71.57L269.968 64.57H269.828C269.548 67.0433 268.498 69.0033 266.678 70.45C264.858 71.8967 262.501 72.62 259.608 72.62C255.641 72.62 252.515 71.3133 250.228 68.7C247.941 66.0867 246.798 62.5633 246.798 58.13V50.22C246.798 45.7867 247.941 42.2867 250.228 39.72C252.515 37.1067 255.641 35.8 259.608 35.8C262.501 35.8 264.858 36.5233 266.678 37.97C268.498 39.37 269.548 41.33 269.828 43.85H269.898L269.828 36.5H276.688V76.05C276.688 79.6433 275.568 82.4667 273.328 84.52C271.088 86.5733 268.008 87.6 264.088 87.6H252.048ZM261.778 66.6C264.251 66.6 266.211 65.83 267.658 64.29C269.105 62.75 269.828 60.58 269.828 57.78V50.57C269.828 47.8167 269.105 45.67 267.658 44.13C266.211 42.59 264.251 41.82 261.778 41.82C259.211 41.82 257.228 42.59 255.828 44.13C254.428 45.6233 253.728 47.77 253.728 50.57V57.78C253.728 60.6267 254.428 62.82 255.828 64.36C257.228 65.8533 259.211 66.6 261.778 66.6ZM290.241 75V36.5H297.101V43.85H297.241C297.567 41.2833 298.617 39.3 300.391 37.9C302.211 36.5 304.591 35.8 307.531 35.8C311.497 35.8 314.671 37.0833 317.051 39.65C319.431 42.2167 320.621 45.67 320.621 50.01V52.81H313.621V50.57C313.621 47.8167 312.897 45.67 311.451 44.13C310.051 42.59 307.974 41.82 305.221 41.82C299.854 41.82 297.171 44.7833 297.171 50.71V75H290.241ZM342.293 75.7C338.233 75.7 335.037 74.6733 332.703 72.62C330.417 70.52 329.273 67.6967 329.273 64.15C329.273 60.51 330.463 57.6633 332.843 55.61C335.27 53.51 338.56 52.46 342.713 52.46H353.913V48.82C353.913 46.58 353.213 44.8533 351.813 43.64C350.46 42.38 348.57 41.75 346.143 41.75C343.95 41.75 342.107 42.24 340.613 43.22C339.167 44.1533 338.28 45.39 337.953 46.93H331.163C331.35 44.69 332.12 42.7533 333.473 41.12C334.827 39.44 336.6 38.1333 338.793 37.2C340.987 36.2667 343.46 35.8 346.213 35.8C350.693 35.8 354.24 36.9667 356.853 39.3C359.513 41.5867 360.843 44.69 360.843 48.61V75H354.053V67.86H353.983C353.657 70.2867 352.443 72.2 350.343 73.6C348.243 75 345.56 75.7 342.293 75.7ZM344.183 70.31C346.983 70.31 349.293 69.61 351.113 68.21C352.98 66.7633 353.913 64.92 353.913 62.68V57.43H342.853C340.8 57.43 339.167 57.99 337.953 59.11C336.787 60.23 336.203 61.7467 336.203 63.66C336.203 65.76 336.903 67.3933 338.303 68.56C339.703 69.7267 341.663 70.31 344.183 70.31ZM370.826 75V36.5H376.776V41.26H377.196C377.476 39.6267 378.199 38.32 379.366 37.34C380.533 36.3133 381.956 35.8 383.636 35.8C385.176 35.8 386.506 36.29 387.626 37.27C388.746 38.25 389.563 39.58 390.076 41.26H390.426C390.706 39.6267 391.429 38.32 392.596 37.34C393.809 36.3133 395.279 35.8 397.006 35.8C399.293 35.8 401.159 36.7333 402.606 38.6C404.099 40.42 404.846 42.8 404.846 45.74V75H398.546V45.81C398.546 42.6367 397.239 41.05 394.626 41.05C393.319 41.05 392.316 41.47 391.616 42.31C390.916 43.1033 390.566 44.27 390.566 45.81V75H385.106V45.81C385.106 44.3167 384.733 43.15 383.986 42.31C383.286 41.47 382.306 41.05 381.046 41.05C378.433 41.05 377.126 42.6367 377.126 45.81V75H370.826Z" fill="black"/>
</svg>
